<svg width="24" height="24" viewBox="0 0 24 24" fill="none" xmlns="http://www.w3.org/2000/svg">
<path d="M12.9999 3C16.8799 3 19.9999 6.14 19.9999 10C19.9999 12.8 18.3699 15.19 15.9999 16.31V21H8.99992V18H7.99992C6.88992 18 5.99992 17.11 5.99992 16V13H4.49992C4.07992 13 3.83992 12.5 4.07992 12.19L5.99992 9.66C6.08802 7.86329 6.86415 6.16939 8.16739 4.92945C9.47064 3.6895 11.2011 2.99861 12.9999 3ZM12.9999 1C8.40992 1 4.60992 4.42 4.05992 8.9L2.49992 11H2.46992L2.44992 11.03C1.89992 11.79 1.82992 12.79 2.25992 13.62C2.61992 14.31 3.25992 14.79 3.99992 14.94V16C3.99992 17.85 5.27992 19.42 6.99992 19.87V23H17.9999V17.5C20.4999 15.83 21.9999 13.06 21.9999 10C21.9999 5.03 17.9599 1 12.9999 1ZM17.3299 9.3L15.3699 9.81L16.8099 11.27C17.1599 11.61 17.1599 12.19 16.8099 12.54C16.4599 12.89 15.8799 12.89 15.5399 12.54L14.0899 11.1L13.5699 13.06C13.4499 13.55 12.9599 13.82 12.4999 13.7C12.3835 13.6708 12.274 13.6189 12.1777 13.5472C12.0814 13.4756 12.0002 13.3855 11.9389 13.2824C11.8776 13.1792 11.8372 13.0649 11.8202 12.9461C11.8032 12.8272 11.8099 12.7062 11.8399 12.59L12.3699 10.63L10.4099 11.16C10.2937 11.19 10.1727 11.1967 10.0538 11.1797C9.93502 11.1627 9.82073 11.1224 9.71756 11.061C9.61438 10.9997 9.52436 10.9185 9.45269 10.8222C9.38101 10.7259 9.32909 10.6164 9.29992 10.5C9.17992 10.05 9.45992 9.55 9.93992 9.43L11.8999 8.91L10.4599 7.46C10.3095 7.28817 10.23 7.06558 10.2375 6.83732C10.2451 6.60907 10.3392 6.39222 10.5007 6.23073C10.6621 6.06925 10.879 5.97519 11.1072 5.96762C11.3355 5.96006 11.5581 6.03956 11.7299 6.19L13.1899 7.63L13.6999 5.67C13.8199 5.18 14.3199 4.9 14.7899 5.03C15.2799 5.16 15.5599 5.65 15.4299 6.13L14.8999 8.1L16.8699 7.57C17.3499 7.44 17.8399 7.72 17.9699 8.21C18.0999 8.68 17.8199 9.18 17.3299 9.3Z" fill="#5EC737"/>
<path d="M12.9999 3C16.8799 3 19.9999 6.14 19.9999 10C19.9999 12.8 18.3699 15.19 15.9999 16.31V21H8.99992V18H7.99992C6.88992 18 5.99992 17.11 5.99992 16V13H4.49992C4.07992 13 3.83992 12.5 4.07992 12.19L5.99992 9.66C6.08802 7.86329 6.86415 6.16939 8.16739 4.92945C9.47064 3.6895 11.2011 2.99861 12.9999 3ZM12.9999 1C8.40992 1 4.60992 4.42 4.05992 8.9L2.49992 11H2.46992L2.44992 11.03C1.89992 11.79 1.82992 12.79 2.25992 13.62C2.61992 14.31 3.25992 14.79 3.99992 14.94V16C3.99992 17.85 5.27992 19.42 6.99992 19.87V23H17.9999V17.5C20.4999 15.83 21.9999 13.06 21.9999 10C21.9999 5.03 17.9599 1 12.9999 1ZM17.3299 9.3L15.3699 9.81L16.8099 11.27C17.1599 11.61 17.1599 12.19 16.8099 12.54C16.4599 12.89 15.8799 12.89 15.5399 12.54L14.0899 11.1L13.5699 13.06C13.4499 13.55 12.9599 13.82 12.4999 13.7C12.3835 13.6708 12.274 13.6189 12.1777 13.5472C12.0814 13.4756 12.0002 13.3855 11.9389 13.2824C11.8776 13.1792 11.8372 13.0649 11.8202 12.9461C11.8032 12.8272 11.8099 12.7062 11.8399 12.59L12.3699 10.63L10.4099 11.16C10.2937 11.19 10.1727 11.1967 10.0538 11.1797C9.93502 11.1627 9.82073 11.1224 9.71756 11.061C9.61438 10.9997 9.52436 10.9185 9.45269 10.8222C9.38101 10.7259 9.32909 10.6164 9.29992 10.5C9.17992 10.05 9.45992 9.55 9.93992 9.43L11.8999 8.91L10.4599 7.46C10.3095 7.28817 10.23 7.06558 10.2375 6.83732C10.2451 6.60907 10.3392 6.39222 10.5007 6.23073C10.6621 6.06925 10.879 5.97519 11.1072 5.96762C11.3355 5.96006 11.5581 6.03956 11.7299 6.19L13.1899 7.63L13.6999 5.67C13.8199 5.18 14.3199 4.9 14.7899 5.03C15.2799 5.16 15.5599 5.65 15.4299 6.13L14.8999 8.1L16.8699 7.57C17.3499 7.44 17.8399 7.72 17.9699 8.21C18.0999 8.68 17.8199 9.18 17.3299 9.3Z" fill="black" fill-opacity="0.2"/>
</svg>
