<svg width="24" height="24" viewBox="0 0 24 24" fill="none" xmlns="http://www.w3.org/2000/svg">
<g opacity="0.7">
<path d="M5.07721 16.0293L5.07705 16.0296C4.8588 16.3849 4.75 16.7696 4.75 17.2V19.25H19.25V17.2C19.25 16.7696 19.1412 16.3849 18.9229 16.0296L18.9228 16.0293C18.702 15.6696 18.4168 15.404 18.0597 15.2184C17.0758 14.7269 16.0805 14.3601 15.0732 14.1159C14.0646 13.8719 13.0406 13.75 12 13.75C10.9594 13.75 9.93541 13.8719 8.92675 14.1159L5.07721 16.0293ZM5.07721 16.0293C5.29798 15.6696 5.58323 15.404 5.94029 15.2184M5.07721 16.0293L5.94029 15.2184M5.94029 15.2184C6.92401 14.727 7.91917 14.3602 8.92632 14.116L5.94029 15.2184ZM12 11.25C11.1005 11.25 10.3491 10.9385 9.70533 10.2947C9.06153 9.65087 8.75 8.89951 8.75 8C8.75 7.10049 9.06153 6.34913 9.70533 5.70533C10.3491 5.06153 11.1005 4.75 12 4.75C12.8995 4.75 13.6509 5.06153 14.2947 5.70533C14.9385 6.34913 15.25 7.10049 15.25 8C15.25 8.89951 14.9385 9.65087 14.2947 10.2947C13.6509 10.9385 12.8995 11.25 12 11.25Z" stroke="#2B3443" stroke-opacity="0.6" stroke-width="1.5"/>
</g>
</svg>
