<svg width="18" height="16" viewBox="0 0 18 16" fill="none" xmlns="http://www.w3.org/2000/svg">
<path opacity="0.7" d="M16.0809 1.92326C15.6717 1.51262 15.186 1.18688 14.6513 0.964635C14.1167 0.742391 13.5436 0.628002 12.9649 0.628002C12.3861 0.628002 11.8131 0.742391 11.2784 0.964635C10.7438 1.18688 10.258 1.51262 9.84888 1.92326L8.99979 2.77507L8.1507 1.92326C7.32428 1.09419 6.20342 0.628432 5.03469 0.628432C3.86597 0.628432 2.74511 1.09419 1.91869 1.92326C1.09228 2.75232 0.628002 3.87677 0.628002 5.04924C0.628002 6.22171 1.09228 7.34616 1.91869 8.17522L2.76778 9.02703L8.99979 15.279L15.2318 9.02703L16.0809 8.17522C16.4902 7.76478 16.8149 7.27746 17.0364 6.74109C17.258 6.20472 17.372 5.62983 17.372 5.04924C17.372 4.46865 17.258 3.89375 17.0364 3.35739C16.8149 2.82102 16.4902 2.3337 16.0809 1.92326V1.92326Z" stroke="white" stroke-width="1.2" stroke-linecap="round" stroke-linejoin="round"/>
</svg>
