<svg width="317" height="14" viewBox="0 0 317 14" fill="none" xmlns="http://www.w3.org/2000/svg">
<mask id="mask0_0_26" style="mask-type:alpha" maskUnits="userSpaceOnUse" x="0" y="0" width="317" height="14">
<path fill-rule="evenodd" clip-rule="evenodd" d="M314.995 1.33679V0H310.985V1.33678H310.316L310.314 1.33679H309.982C309.428 1.33679 308.979 1.78566 308.979 2.33938V12.3653C308.979 12.919 309.428 13.3679 309.982 13.3679H315.997C316.551 13.3679 317 12.919 317 12.3653V2.33938C317 1.78566 316.551 1.33679 315.997 1.33679H315.665L315.663 1.33678L314.995 1.33679ZM284.103 3.82123C284.335 3.53262 284.287 3.10443 283.983 2.8946C282.903 2.1504 280.351 0.668394 276.896 0.668394C273.438 0.668394 270.888 2.14995 269.81 2.89426C269.506 3.10428 269.458 3.53262 269.69 3.82123L275.874 11.5388C276.398 12.1952 277.395 12.1952 277.919 11.5388L284.103 3.82123ZM299.623 1.61364C299.623 1.01817 298.903 0.719949 298.482 1.14101L287.396 12.2268C286.975 12.6479 287.273 13.3679 287.869 13.3679H298.286C299.025 13.3679 299.623 12.7694 299.623 12.0311V1.61364ZM4.09847 13.2778V3.26459H3.89972L0 4.69015V6.05402L2.44675 5.22473V13.2778H4.09847ZM14.2556 13.2778V11.9619H9.64992L11.8088 9.58364C12.1104 9.27294 12.3868 8.96681 12.6381 8.66525C12.8894 8.35913 13.1064 8.05528 13.2892 7.75372C13.4765 7.44759 13.6205 7.14146 13.721 6.83533C13.8215 6.52921 13.8718 6.22079 13.8718 5.91009C13.8718 5.34809 13.7484 4.86149 13.5017 4.45027C13.2595 4.03905 12.9054 3.7215 12.4393 3.49761C11.9733 3.27373 11.4067 3.16179 10.7396 3.16179C10.0314 3.16179 9.42603 3.30571 8.92343 3.59356C8.42083 3.87685 8.03703 4.26065 7.77202 4.74497C7.50702 5.22473 7.37451 5.75474 7.37451 6.33502H9.02624C9.02624 5.97406 9.09021 5.65422 9.21814 5.37551C9.34608 5.09223 9.53569 4.87063 9.78699 4.71071C10.0383 4.55079 10.349 4.47083 10.7191 4.47083C11.0389 4.47083 11.3108 4.54165 11.5347 4.68329C11.7586 4.82036 11.9276 5.00998 12.0418 5.25214C12.1606 5.48974 12.22 5.76617 12.22 6.08143C12.22 6.30532 12.1766 6.53606 12.0898 6.77365C12.0076 7.00667 11.8636 7.2694 11.658 7.56182C11.4524 7.85424 11.1714 8.20149 10.815 8.60357L7.56641 12.1469V13.2778H14.2556ZM15.921 11.8111C15.7474 11.9847 15.6606 12.1994 15.6606 12.4553C15.6606 12.7112 15.7474 12.9259 15.921 13.0996C16.0946 13.2732 16.3299 13.36 16.6269 13.36C16.9285 13.36 17.1638 13.2732 17.3328 13.0996C17.5065 12.9259 17.5933 12.7112 17.5933 12.4553C17.5933 12.1994 17.5065 11.9847 17.3328 11.8111C17.1638 11.6329 16.9285 11.5438 16.6269 11.5438C16.3299 11.5438 16.0946 11.6329 15.921 11.8111ZM15.9278 5.97178C15.7542 6.1454 15.6674 6.36015 15.6674 6.61602C15.6674 6.87189 15.7542 7.08663 15.9278 7.26026C16.1015 7.43388 16.3368 7.5207 16.6338 7.5207C16.9353 7.5207 17.1706 7.43388 17.3397 7.26026C17.5133 7.08663 17.6001 6.87189 17.6001 6.61602C17.6001 6.36015 17.5133 6.1454 17.3397 5.97178C17.1706 5.79358 16.9353 5.70448 16.6338 5.70448C16.3368 5.70448 16.1015 5.79358 15.9278 5.97178ZM22.1715 7.54126H21.1846V7.92506V8.45965V8.82974H22.1715C22.5507 8.82974 22.8797 8.88914 23.1584 9.00794C23.4371 9.12216 23.6519 9.30036 23.8027 9.54252C23.9535 9.78468 24.0288 10.0999 24.0288 10.4883C24.0288 10.831 23.9603 11.1234 23.8232 11.3656C23.6907 11.6077 23.4988 11.7905 23.2475 11.9139C22.9962 12.0372 22.697 12.0989 22.3497 12.0989C22.0207 12.0989 21.7283 12.035 21.4724 11.907C21.2211 11.7791 21.0247 11.6032 20.883 11.3793C20.746 11.1508 20.6774 10.8881 20.6774 10.5911H19.0257C19.0257 11.0572 19.1148 11.4684 19.293 11.8248C19.4757 12.1766 19.7225 12.4713 20.0332 12.7089C20.3439 12.9419 20.6957 13.1178 21.0886 13.2366C21.4816 13.3554 21.8928 13.4148 22.3223 13.4148C22.802 13.4148 23.2452 13.3509 23.6519 13.2229C24.0631 13.095 24.4218 12.9054 24.7279 12.6541C25.034 12.4028 25.2694 12.0966 25.4338 11.7357C25.6029 11.3702 25.6874 10.9544 25.6874 10.4883C25.6874 10.1456 25.6257 9.82123 25.5024 9.51511C25.3836 9.20898 25.194 8.93712 24.9335 8.69952C24.6867 8.46997 24.37 8.28764 23.9835 8.15252C24.2811 8.01648 24.5361 7.85156 24.7485 7.65777C25.0089 7.41561 25.2054 7.14832 25.3379 6.85589C25.4704 6.56347 25.5366 6.27562 25.5366 5.99234C25.5366 5.37094 25.4019 4.85006 25.1323 4.42971C24.8627 4.00935 24.4858 3.69408 24.0014 3.48391C23.5217 3.26916 22.9597 3.16179 22.3154 3.16179C21.7123 3.16179 21.1686 3.28058 20.6843 3.51817C20.2045 3.7512 19.8253 4.07332 19.5466 4.48454C19.2679 4.89575 19.1285 5.36637 19.1285 5.89639H20.7871C20.7871 5.60396 20.8556 5.35266 20.9927 5.14249C21.1298 4.92774 21.3148 4.76325 21.5478 4.64902C21.7854 4.53023 22.0504 4.47083 22.3429 4.47083C22.6901 4.47083 22.9757 4.53251 23.1996 4.65588C23.428 4.77924 23.5971 4.95515 23.7067 5.18361C23.821 5.40749 23.8781 5.67707 23.8781 5.99234C23.8781 6.2939 23.8164 6.56119 23.693 6.79421C23.5697 7.02724 23.38 7.21 23.1242 7.3425C22.8729 7.47501 22.5553 7.54126 22.1715 7.54126ZM33.7267 9.08333V7.45216C33.7267 6.8262 33.6765 6.2779 33.576 5.80729C33.4754 5.3321 33.3292 4.92774 33.1373 4.59419C32.95 4.25608 32.7215 3.98194 32.452 3.77176C32.187 3.56158 31.8854 3.40852 31.5473 3.31257C31.2137 3.21204 30.8482 3.16179 30.4507 3.16179C29.9572 3.16179 29.5095 3.23946 29.1074 3.39481C28.7099 3.55016 28.3672 3.79917 28.0793 4.14186C27.7915 4.47997 27.5699 4.92088 27.4145 5.46461C27.2592 6.00376 27.1815 6.66628 27.1815 7.45216V9.08333C27.1815 9.70929 27.2318 10.2599 27.3323 10.7351C27.4374 11.2102 27.5836 11.6192 27.7709 11.9619C27.9628 12.3 28.1936 12.5764 28.4632 12.7911C28.7327 13.0059 29.0343 13.1635 29.3678 13.264C29.7059 13.3646 30.0715 13.4148 30.4644 13.4148C30.9579 13.4148 31.4034 13.3349 31.8009 13.1749C32.203 13.015 32.5479 12.7637 32.8358 12.421C33.1236 12.0784 33.3429 11.6329 33.4937 11.0846C33.6491 10.5317 33.7267 9.86464 33.7267 9.08333ZM32.075 7.20543V9.31635C32.075 9.81438 32.0407 10.2416 31.9722 10.598C31.9037 10.9544 31.8009 11.2445 31.6638 11.4684C31.5267 11.6877 31.3577 11.8476 31.1566 11.9481C30.9556 12.0487 30.7248 12.0989 30.4644 12.0989C30.2588 12.0989 30.0692 12.0669 29.8956 12.003C29.7265 11.939 29.5757 11.8385 29.4432 11.7014C29.3153 11.5598 29.2056 11.3816 29.1142 11.1668C29.0229 10.9475 28.9543 10.6848 28.9086 10.3787C28.8629 10.0725 28.8401 9.71843 28.8401 9.31635V7.20543C28.8401 6.7074 28.8744 6.28476 28.9429 5.93751C29.016 5.58569 29.1211 5.3024 29.2582 5.08766C29.3952 4.87291 29.5643 4.71756 29.7653 4.62161C29.9664 4.52109 30.1948 4.47083 30.4507 4.47083C30.6609 4.47083 30.8505 4.50281 31.0196 4.56678C31.1886 4.62618 31.3394 4.72441 31.4719 4.86149C31.6044 4.99399 31.7141 5.16762 31.8009 5.38236C31.8923 5.59254 31.9608 5.8507 32.0065 6.15682C32.0522 6.45838 32.075 6.80792 32.075 7.20543Z" fill="white"/>
</mask>
<g mask="url(#mask0_0_26)">
<g filter="url(#filter0_b_0_26)">
<rect x="-1.16512" y="-3.76632" width="320.828" height="24.0621" fill="white" style="mix-blend-mode:multiply"/>
</g>
<rect x="-1.16512" y="-3.76632" width="320.828" height="24.0621" fill="#FF0000" style="mix-blend-mode:saturation"/>
<rect x="-1.16512" y="-3.76632" width="320.828" height="24.0621" fill="white" style="mix-blend-mode:difference"/>
<rect x="-1.16512" y="-3.76632" width="320.828" height="24.0621" fill="white" style="mix-blend-mode:saturation"/>
<rect x="-1.16512" y="-3.76632" width="320.828" height="24.0621" fill="white" style="mix-blend-mode:overlay"/>
<rect x="-1.16512" y="-3.76632" width="320.828" height="24.0621" fill="black" style="mix-blend-mode:overlay"/>
<rect x="-1.16512" y="-3.76632" width="320.828" height="24.0621" fill="white" style="mix-blend-mode:overlay"/>
<rect x="-1.16512" y="-3.76632" width="320.828" height="24.0621" fill="black" style="mix-blend-mode:overlay"/>
</g>
<defs>
<filter id="filter0_b_0_26" x="-151.553" y="-154.155" width="621.605" height="324.839" filterUnits="userSpaceOnUse" color-interpolation-filters="sRGB">
<feFlood flood-opacity="0" result="BackgroundImageFix"/>
<feGaussianBlur in="BackgroundImageFix" stdDeviation="75"/>
<feComposite in2="SourceAlpha" operator="in" result="effect1_backgroundBlur_0_26"/>
<feBlend mode="normal" in="SourceGraphic" in2="effect1_backgroundBlur_0_26" result="shape"/>
</filter>
</defs>
</svg>
