<svg width="24" height="24" viewBox="0 0 24 24" fill="none" xmlns="http://www.w3.org/2000/svg">
<g opacity="0.7">
<path d="M3 6.75C3 5.75544 3.39509 4.80161 4.09835 4.09835C4.80161 3.39509 5.75544 3 6.75 3H17.25C18.2446 3 19.1984 3.39509 19.9016 4.09835C20.6049 4.80161 21 5.75544 21 6.75V9.543C20.5264 9.31088 20.0208 9.15062 19.5 9.0675V6.75C19.5 6.15326 19.2629 5.58097 18.841 5.15901C18.419 4.73705 17.8467 4.5 17.25 4.5H12.75V9C12.243 9.0105 11.7375 9.09 11.25 9.2445V9H4.5V17.25C4.5 17.8467 4.73705 18.419 5.15901 18.841C5.58097 19.2629 6.15326 19.5 6.75 19.5H10.38L11.868 21H6.75C5.75544 21 4.80161 20.6049 4.09835 19.9017C3.39509 19.1984 3 18.2446 3 17.25V6.75ZM6.75 4.5C6.15326 4.5 5.58097 4.73705 5.15901 5.15901C4.73705 5.58097 4.5 6.15326 4.5 6.75V7.5H11.25V4.5H6.75ZM19.5 10.5945C20.2112 10.7551 20.8615 11.1164 21.3735 11.6355C22.0947 12.365 22.4991 13.3494 22.4991 14.3753C22.4991 15.4011 22.0947 16.3855 21.3735 17.115L16.227 22.3005C16.1645 22.3635 16.0902 22.4134 16.0084 22.4475C15.9265 22.4816 15.8387 22.4992 15.75 22.4992C15.6613 22.4992 15.5735 22.4816 15.4916 22.4475C15.4098 22.4134 15.3355 22.3635 15.273 22.3005L10.125 17.115C9.40345 16.3857 8.99874 15.4012 8.99874 14.3753C8.99874 13.3493 9.40345 12.3648 10.125 11.6355C10.821 10.9328 11.7614 10.5261 12.75 10.5C13.2719 10.4866 13.791 10.5804 14.2752 10.7754C14.7594 10.9704 15.1986 11.2626 15.5655 11.634L15.75 11.8185L15.9345 11.634C16.3916 11.1721 16.9588 10.8343 17.5826 10.6525C18.2064 10.4706 18.8663 10.4506 19.5 10.5945Z" fill="#2B3443" fill-opacity="0.6"/>
</g>
</svg>
