<svg width="24" height="24" viewBox="0 0 24 24" fill="none" xmlns="http://www.w3.org/2000/svg">
<g opacity="0.8">
<path d="M4.88351 9.43604L4.88414 9.43478C4.97335 9.25592 5.09192 9.11598 5.24352 9.0048L5.24355 9.00484L5.25 9L11.2452 4.50362C11.3696 4.41371 11.4917 4.35166 11.6122 4.31151C11.7336 4.27104 11.8617 4.25 12 4.25C12.1383 4.25 12.2664 4.27104 12.3878 4.31151C12.5083 4.35166 12.6304 4.41371 12.7548 4.50362L18.75 9L18.75 9.00003L18.7565 9.0048C18.9082 9.11607 19.0273 9.25624 19.1172 9.43541C19.2064 9.61456 19.25 9.79975 19.25 10V19C19.25 19.3494 19.1345 19.6301 18.8829 19.8825C18.6304 20.1344 18.3496 20.25 18 20.25H14.75V14V13.25H14H10H9.25V14V20.25H6C5.6503 20.25 5.37 20.1343 5.11833 19.8827C4.86572 19.6301 4.75 19.3493 4.75 19V10C4.75 9.8001 4.79374 9.61516 4.88351 9.43604ZM4.213 9.1C4.35433 8.81667 4.55 8.58333 4.8 8.4L4.213 9.1Z" stroke="#2B3443" stroke-opacity="0.6" stroke-width="1.5"/>
</g>
</svg>
