<svg width="24" height="24" viewBox="0 0 24 24" fill="none" xmlns="http://www.w3.org/2000/svg">
<path d="M9 12.7498C9.39782 12.7498 9.77936 12.5917 10.0607 12.3104C10.342 12.0291 10.5 11.6476 10.5 11.2498C10.5 10.852 10.342 10.4704 10.0607 10.1891C9.77936 9.90781 9.39782 9.74978 9 9.74978C8.60218 9.74978 8.22064 9.90781 7.93934 10.1891C7.65804 10.4704 7.5 10.852 7.5 11.2498C7.5 11.6476 7.65804 12.0291 7.93934 12.3104C8.22064 12.5917 8.60218 12.7498 9 12.7498ZM16.5 11.2498C16.5 11.6476 16.342 12.0291 16.0607 12.3104C15.7794 12.5917 15.3978 12.7498 15 12.7498C14.6022 12.7498 14.2206 12.5917 13.9393 12.3104C13.658 12.0291 13.5 11.6476 13.5 11.2498C13.5 10.852 13.658 10.4704 13.9393 10.1891C14.2206 9.90781 14.6022 9.74978 15 9.74978C15.3978 9.74978 15.7794 9.90781 16.0607 10.1891C16.342 10.4704 16.5 10.852 16.5 11.2498ZM8.25525 4.81253C8.27373 4.71639 8.32906 4.63129 8.40944 4.57541C8.48981 4.51953 8.58885 4.49729 8.6854 4.51345C8.78195 4.5296 8.86836 4.58287 8.92616 4.66188C8.98396 4.74089 9.00858 4.83937 8.99475 4.93628V4.94153L8.9925 4.94903C8.98581 4.9871 8.97756 5.02488 8.96775 5.06228C8.85837 5.4821 8.6689 5.87684 8.40975 6.22478C7.92225 6.87353 7.065 7.49978 5.625 7.49978C5.52554 7.49978 5.43016 7.46027 5.35984 7.38994C5.28951 7.31962 5.25 7.22423 5.25 7.12478C5.25 7.02532 5.28951 6.92994 5.35984 6.85961C5.43016 6.78929 5.52554 6.74978 5.625 6.74978C6.81 6.74978 7.45275 6.25103 7.809 5.77478C8.00845 5.50701 8.15484 5.20356 8.24025 4.88078C8.2449 4.86212 8.24915 4.84337 8.253 4.82453L8.25525 4.81253ZM15.7448 4.81253L15.747 4.82453L15.7598 4.88078C15.8449 5.2035 15.9911 5.50695 16.1903 5.77478C16.5472 6.25103 17.19 6.74978 18.375 6.74978C18.4745 6.74978 18.5698 6.78929 18.6402 6.85961C18.7105 6.92994 18.75 7.02532 18.75 7.12478C18.75 7.22423 18.7105 7.31962 18.6402 7.38994C18.5698 7.46027 18.4745 7.49978 18.375 7.49978C16.935 7.49978 16.0778 6.87353 15.591 6.22478C15.3316 5.8769 15.1419 5.48216 15.0322 5.06228C15.023 5.02499 15.0148 4.98748 15.0075 4.94978L15.006 4.94153V4.93853L15.0052 4.93703L15.375 4.87478L15.0052 4.93628C14.9914 4.83937 15.016 4.74089 15.0738 4.66188C15.1316 4.58287 15.218 4.5296 15.3146 4.51345C15.4111 4.49729 15.5102 4.51953 15.5906 4.57541C15.6709 4.63129 15.7263 4.71639 15.7448 4.81253ZM9.6705 19.085C9.7995 18.8278 10.4963 17.9998 12 17.9998C13.5037 17.9998 14.2005 18.8278 14.3295 19.085C14.3716 19.1762 14.4316 19.258 14.506 19.3256C14.5803 19.3931 14.6674 19.445 14.7622 19.4783C14.857 19.5115 14.9575 19.5254 15.0577 19.519C15.158 19.5127 15.2559 19.4862 15.3458 19.4413C15.4356 19.3964 15.5155 19.3339 15.5807 19.2575C15.646 19.1811 15.6952 19.0924 15.7255 18.9967C15.7557 18.9009 15.7665 18.8 15.757 18.7C15.7476 18.6 15.7182 18.5029 15.6705 18.4145C15.3 17.672 14.0963 16.4998 12 16.4998C9.90375 16.4998 8.7 17.672 8.3295 18.4145C8.28183 18.5029 8.2524 18.6 8.24295 18.7C8.23351 18.8 8.24426 18.9009 8.27454 18.9967C8.30483 19.0924 8.35404 19.1811 8.41926 19.2575C8.48449 19.3339 8.56439 19.3964 8.65422 19.4413C8.74406 19.4862 8.84201 19.5127 8.94225 19.519C9.04249 19.5254 9.14299 19.5115 9.23777 19.4783C9.33256 19.445 9.4197 19.3931 9.49404 19.3256C9.56837 19.258 9.62838 19.1762 9.6705 19.085Z" fill="#5EC737"/>
<path d="M9 12.7498C9.39782 12.7498 9.77936 12.5917 10.0607 12.3104C10.342 12.0291 10.5 11.6476 10.5 11.2498C10.5 10.852 10.342 10.4704 10.0607 10.1891C9.77936 9.90781 9.39782 9.74978 9 9.74978C8.60218 9.74978 8.22064 9.90781 7.93934 10.1891C7.65804 10.4704 7.5 10.852 7.5 11.2498C7.5 11.6476 7.65804 12.0291 7.93934 12.3104C8.22064 12.5917 8.60218 12.7498 9 12.7498ZM16.5 11.2498C16.5 11.6476 16.342 12.0291 16.0607 12.3104C15.7794 12.5917 15.3978 12.7498 15 12.7498C14.6022 12.7498 14.2206 12.5917 13.9393 12.3104C13.658 12.0291 13.5 11.6476 13.5 11.2498C13.5 10.852 13.658 10.4704 13.9393 10.1891C14.2206 9.90781 14.6022 9.74978 15 9.74978C15.3978 9.74978 15.7794 9.90781 16.0607 10.1891C16.342 10.4704 16.5 10.852 16.5 11.2498ZM8.25525 4.81253C8.27373 4.71639 8.32906 4.63129 8.40944 4.57541C8.48981 4.51953 8.58885 4.49729 8.6854 4.51345C8.78195 4.5296 8.86836 4.58287 8.92616 4.66188C8.98396 4.74089 9.00858 4.83937 8.99475 4.93628V4.94153L8.9925 4.94903C8.98581 4.9871 8.97756 5.02488 8.96775 5.06228C8.85837 5.4821 8.6689 5.87684 8.40975 6.22478C7.92225 6.87353 7.065 7.49978 5.625 7.49978C5.52554 7.49978 5.43016 7.46027 5.35984 7.38994C5.28951 7.31962 5.25 7.22423 5.25 7.12478C5.25 7.02532 5.28951 6.92994 5.35984 6.85961C5.43016 6.78929 5.52554 6.74978 5.625 6.74978C6.81 6.74978 7.45275 6.25103 7.809 5.77478C8.00845 5.50701 8.15484 5.20356 8.24025 4.88078C8.2449 4.86212 8.24915 4.84337 8.253 4.82453L8.25525 4.81253ZM15.7448 4.81253L15.747 4.82453L15.7598 4.88078C15.8449 5.2035 15.9911 5.50695 16.1903 5.77478C16.5472 6.25103 17.19 6.74978 18.375 6.74978C18.4745 6.74978 18.5698 6.78929 18.6402 6.85961C18.7105 6.92994 18.75 7.02532 18.75 7.12478C18.75 7.22423 18.7105 7.31962 18.6402 7.38994C18.5698 7.46027 18.4745 7.49978 18.375 7.49978C16.935 7.49978 16.0778 6.87353 15.591 6.22478C15.3316 5.8769 15.1419 5.48216 15.0322 5.06228C15.023 5.02499 15.0148 4.98748 15.0075 4.94978L15.006 4.94153V4.93853L15.0052 4.93703L15.375 4.87478L15.0052 4.93628C14.9914 4.83937 15.016 4.74089 15.0738 4.66188C15.1316 4.58287 15.218 4.5296 15.3146 4.51345C15.4111 4.49729 15.5102 4.51953 15.5906 4.57541C15.6709 4.63129 15.7263 4.71639 15.7448 4.81253ZM9.6705 19.085C9.7995 18.8278 10.4963 17.9998 12 17.9998C13.5037 17.9998 14.2005 18.8278 14.3295 19.085C14.3716 19.1762 14.4316 19.258 14.506 19.3256C14.5803 19.3931 14.6674 19.445 14.7622 19.4783C14.857 19.5115 14.9575 19.5254 15.0577 19.519C15.158 19.5127 15.2559 19.4862 15.3458 19.4413C15.4356 19.3964 15.5155 19.3339 15.5807 19.2575C15.646 19.1811 15.6952 19.0924 15.7255 18.9967C15.7557 18.9009 15.7665 18.8 15.757 18.7C15.7476 18.6 15.7182 18.5029 15.6705 18.4145C15.3 17.672 14.0963 16.4998 12 16.4998C9.90375 16.4998 8.7 17.672 8.3295 18.4145C8.28183 18.5029 8.2524 18.6 8.24295 18.7C8.23351 18.8 8.24426 18.9009 8.27454 18.9967C8.30483 19.0924 8.35404 19.1811 8.41926 19.2575C8.48449 19.3339 8.56439 19.3964 8.65422 19.4413C8.74406 19.4862 8.84201 19.5127 8.94225 19.519C9.04249 19.5254 9.14299 19.5115 9.23777 19.4783C9.33256 19.445 9.4197 19.3931 9.49404 19.3256C9.56837 19.258 9.62838 19.1762 9.6705 19.085Z" fill="black" fill-opacity="0.2"/>
<path d="M11.9992 0.75C8.32125 0.75 5.48475 1.9905 3.57225 4.06725C1.6695 6.1335 0.75 8.9535 0.75 11.9992C0.75 15.045 1.6695 17.8643 3.57225 19.9313C5.48475 22.008 8.32125 23.2485 11.9992 23.2485C15.6772 23.2485 18.5138 22.008 20.4255 19.9313C22.3282 17.865 23.2485 15.045 23.2485 11.9992C23.2485 8.9535 22.3282 6.1335 20.4255 4.06725C18.513 1.9905 15.6772 0.75 12 0.75H11.9992ZM2.25 11.9992C2.25 9.24675 3.0795 6.81675 4.67625 5.0835C6.2625 3.36 8.676 2.25 11.9992 2.25C15.3217 2.25 17.7353 3.36 19.3223 5.0835C20.919 6.81675 21.7485 9.246 21.7485 11.9985C21.7485 14.7517 20.919 17.181 19.3223 18.915C17.7353 20.6385 15.3225 21.7485 11.9992 21.7485C8.67675 21.7485 6.26325 20.6385 4.67625 18.915C3.07875 17.1825 2.25 14.7525 2.25 12V11.9992Z" fill="#5EC737"/>
<path d="M11.9992 0.75C8.32125 0.75 5.48475 1.9905 3.57225 4.06725C1.6695 6.1335 0.75 8.9535 0.75 11.9992C0.75 15.045 1.6695 17.8643 3.57225 19.9313C5.48475 22.008 8.32125 23.2485 11.9992 23.2485C15.6772 23.2485 18.5138 22.008 20.4255 19.9313C22.3282 17.865 23.2485 15.045 23.2485 11.9992C23.2485 8.9535 22.3282 6.1335 20.4255 4.06725C18.513 1.9905 15.6772 0.75 12 0.75H11.9992ZM2.25 11.9992C2.25 9.24675 3.0795 6.81675 4.67625 5.0835C6.2625 3.36 8.676 2.25 11.9992 2.25C15.3217 2.25 17.7353 3.36 19.3223 5.0835C20.919 6.81675 21.7485 9.246 21.7485 11.9985C21.7485 14.7517 20.919 17.181 19.3223 18.915C17.7353 20.6385 15.3225 21.7485 11.9992 21.7485C8.67675 21.7485 6.26325 20.6385 4.67625 18.915C3.07875 17.1825 2.25 14.7525 2.25 12V11.9992Z" fill="black" fill-opacity="0.2"/>
</svg>
