<svg width="34" height="34" viewBox="0 0 34 34" fill="none" xmlns="http://www.w3.org/2000/svg">
<path d="M16.8825 31.777C9.38819 31.777 1.30298 27.0763 1.30298 16.7616C1.30298 6.44695 9.38819 1.74625 16.8825 1.74625C21.0459 1.74625 24.8871 3.11617 27.7344 5.61425C30.8234 8.35409 32.4619 12.2221 32.4619 16.7616C32.4619 21.3012 30.8234 25.1423 27.7344 27.8822C24.8871 30.3803 21.0191 31.777 16.8825 31.777Z" fill="url(#paint0_radial_0_56)"/>
<path d="M29.7463 7.83566C31.178 10.1457 31.9248 12.8963 31.9248 15.9558C31.9248 20.4953 30.2862 24.3365 27.1972 27.0763C24.3499 29.5744 20.4819 30.9712 16.3453 30.9712C11.4941 30.9712 6.3959 28.9969 3.40356 24.8092C6.29383 29.5529 11.7278 31.777 16.8825 31.777C21.0191 31.777 24.8871 30.3802 27.7344 27.8822C30.8234 25.1423 32.462 21.3012 32.462 16.7616C32.462 13.3395 31.5299 10.2988 29.7463 7.83566Z" fill="#EB8F00"/>
<path opacity="0.8" d="M7.11843 21.4436C9.71456 21.4436 11.8191 19.339 11.8191 16.7428C11.8191 14.1467 9.71456 12.0421 7.11843 12.0421C4.5223 12.0421 2.41772 14.1467 2.41772 16.7428C2.41772 19.339 4.5223 21.4436 7.11843 21.4436Z" fill="url(#paint1_radial_0_56)"/>
<path opacity="0.8" d="M26.8616 21.4436C29.4577 21.4436 31.5623 19.339 31.5623 16.7428C31.5623 14.1467 29.4577 12.0421 26.8616 12.0421C24.2655 12.0421 22.1609 14.1467 22.1609 16.7428C22.1609 19.339 24.2655 21.4436 26.8616 21.4436Z" fill="url(#paint2_radial_0_56)"/>
<path d="M26.8453 17.3365C24.0866 18.9374 20.6806 19.8856 16.9899 19.8856C13.2992 19.8856 9.89317 18.9374 7.13453 17.3365C6.62686 17.0437 6.095 17.6776 6.47375 18.1208C8.97184 21.0406 12.7539 22.9021 16.9899 22.9021C21.2259 22.9021 25.008 21.0406 27.506 18.1208C27.8875 17.6749 27.3529 17.041 26.8453 17.3365Z" fill="#422B0D"/>
<path d="M13.1113 11.7171C13.1113 11.7171 13.0978 11.6983 13.0683 11.6634C13.0414 11.6285 13.0038 11.5801 12.9555 11.5183C12.9152 11.4754 12.8668 11.4243 12.8104 11.3652C12.754 11.3008 12.6842 11.2336 12.6143 11.1638C12.5418 11.0966 12.4666 11.0268 12.3887 10.9704C12.3135 10.9086 12.2302 10.8629 12.1631 10.8253C12.0932 10.7823 12.0288 10.7716 11.9885 10.7582C11.967 10.7501 11.9482 10.7501 11.9321 10.7474C11.924 10.7501 11.9159 10.7447 11.9079 10.7474L11.8971 10.7501H11.8918H11.8891C11.9213 10.7501 11.8166 10.7528 11.9616 10.7474L11.8139 10.7528C11.7763 10.7528 11.8004 10.7555 11.8031 10.7555C11.8112 10.7555 11.8166 10.7555 11.8219 10.7528C11.8434 10.7447 11.8219 10.7528 11.8166 10.7528C11.8085 10.7528 11.7978 10.7555 11.787 10.7608C11.744 10.7743 11.6796 10.785 11.6124 10.828C11.5453 10.8656 11.462 10.9113 11.3868 10.9731C11.3116 11.0321 11.2337 11.0993 11.1611 11.1665C11.0215 11.3034 10.8979 11.4404 10.812 11.5398C10.7233 11.6419 10.675 11.701 10.675 11.701L10.6132 11.7735C10.2452 12.2033 9.56828 12.2758 9.10358 11.9374C8.78662 11.7064 8.64963 11.3464 8.70873 11.0026C8.70873 11.0026 8.72753 10.8925 8.78125 10.7018C8.83766 10.511 8.93167 10.2397 9.11702 9.92009C9.30236 9.60313 9.57097 9.22976 10.0249 8.88862C10.2479 8.72208 10.5192 8.55555 10.8415 8.44273C10.9194 8.41318 11.0027 8.38632 11.0886 8.36483C11.1773 8.34334 11.2471 8.31917 11.368 8.30305L11.5345 8.27888C11.5856 8.2735 11.6608 8.26545 11.6715 8.26545L11.8192 8.2547L11.9025 8.25201H11.9106H11.9267L11.9616 8.2547L12.0315 8.25739L12.1684 8.26545C12.2598 8.2735 12.3484 8.28962 12.4371 8.30305C12.6117 8.33528 12.7863 8.38095 12.9447 8.44004C13.2671 8.55286 13.5384 8.71671 13.7613 8.88594C14.2153 9.22708 14.4839 9.60044 14.6692 9.91741C14.7632 10.0759 14.8331 10.2263 14.8841 10.3579C14.9405 10.4842 14.9808 10.6185 15.013 10.7179C15.0426 10.8146 15.0426 10.8656 15.056 10.9113C15.0641 10.9542 15.0668 10.9784 15.0668 10.9784C15.1662 11.521 14.7659 12.0341 14.1777 12.1227C13.7506 12.1899 13.345 12.0179 13.1113 11.7171Z" fill="#422B0D"/>
<path d="M23.184 11.7171C23.184 11.7171 23.1706 11.6983 23.141 11.6634C23.1142 11.6285 23.0766 11.5801 23.0282 11.5183C22.9879 11.4754 22.9396 11.4243 22.8832 11.3652C22.8268 11.3008 22.7569 11.2336 22.6871 11.1638C22.6146 11.0966 22.5394 11.0268 22.4615 10.9704C22.3862 10.9086 22.303 10.8629 22.2358 10.8253C22.166 10.7823 22.1015 10.7716 22.0612 10.7582C22.0397 10.7501 22.0209 10.7501 22.0048 10.7474C21.9968 10.7501 21.9887 10.7447 21.9806 10.7474L21.9699 10.7501H21.9645H21.9618H21.9592C21.9914 10.7501 21.8866 10.7528 22.0317 10.7474L21.8839 10.7528C21.8463 10.7528 21.8705 10.7555 21.8732 10.7555C21.8813 10.7555 21.8866 10.7555 21.892 10.7528C21.9135 10.7447 21.892 10.7528 21.8866 10.7528C21.8786 10.7528 21.8678 10.7555 21.8571 10.7608C21.8141 10.7743 21.7496 10.785 21.6825 10.828C21.6153 10.8656 21.5321 10.9113 21.4569 10.9731C21.3816 11.0321 21.3037 11.0993 21.2312 11.1665C21.0915 11.3034 20.968 11.4404 20.882 11.5398C20.7934 11.6419 20.745 11.701 20.745 11.701L20.6832 11.7735C20.3153 12.2033 19.6383 12.2758 19.1737 11.9374C18.8567 11.7064 18.7197 11.3464 18.7788 11.0026C18.7788 11.0026 18.7976 10.8925 18.8513 10.7018C18.9077 10.511 19.0017 10.2397 19.1871 9.92009C19.3724 9.60313 19.641 9.22976 20.095 8.88862C20.3179 8.72208 20.5892 8.55555 20.9116 8.44273C20.9895 8.41318 21.0727 8.38632 21.1587 8.36483C21.2473 8.34334 21.3172 8.31917 21.438 8.30305L21.6046 8.27888C21.6556 8.2735 21.7308 8.26545 21.7416 8.26545L21.8893 8.2547L21.9726 8.25201H21.9806H21.9968L22.0317 8.2547L22.1015 8.25739L22.2385 8.26545C22.3298 8.2735 22.4185 8.28962 22.5071 8.30305C22.6817 8.33528 22.8563 8.38095 23.0148 8.44004C23.3371 8.55286 23.6084 8.71671 23.8314 8.88594C24.2853 9.22708 24.5539 9.60044 24.7393 9.91741C24.8333 10.0759 24.9031 10.2263 24.9542 10.3579C25.0106 10.4842 25.0509 10.6185 25.0831 10.7179C25.1127 10.8146 25.1127 10.8656 25.1261 10.9113C25.1341 10.9542 25.1368 10.9784 25.1368 10.9784C25.2362 11.521 24.836 12.0341 24.2477 12.1227C23.8206 12.1899 23.415 12.0179 23.184 11.7171Z" fill="#422B0D"/>
<path d="M29.5557 0.193664C27.6593 0.953835 27.4928 3.11079 27.4928 3.11079C27.4928 3.11079 26.2491 1.76504 24.5649 2.33181C22.5423 3.01409 21.5242 5.18447 23.1628 7.52676C25.0377 10.2048 31.0546 10.9677 31.0546 10.9677C31.0546 10.9677 34.4203 6.57051 33.9529 3.08393C33.5742 0.250072 30.9901 -0.381165 29.5557 0.193664Z" fill="#F44336"/>
<path d="M29.5556 0.193664C29.5556 0.193664 29.0909 0.384378 28.9082 0.564348C28.9082 0.564348 30.1868 0.432728 31.3445 1.09351C32.1074 1.52866 32.8165 2.30764 33.0744 3.69636C33.6304 6.70481 31.2559 10.6534 31.0732 10.9435C31.3176 10.6185 34.404 6.43351 33.9554 3.08393C33.574 0.250072 30.9899 -0.381165 29.5556 0.193664Z" fill="#C62828"/>
<path d="M27.6727 3.34715C27.4874 3.1242 27.2671 2.9308 27.1328 2.82335C26.4559 2.28344 25.8918 2.14377 25.1612 2.21092C24.4306 2.27539 23.7778 2.68368 23.7778 2.68368C23.7778 2.68368 24.487 2.41506 25.4943 2.89588C26.0234 3.14837 26.4881 3.52443 26.8776 3.96495C27.0173 4.12343 27.157 4.29535 27.345 4.38936C27.533 4.48337 27.7963 4.46994 27.9252 4.30072C28.1267 4.02673 27.9333 3.65874 27.6727 3.34715Z" fill="#C62828"/>
<path d="M23.281 5.2731C23.2971 4.56128 23.5576 3.69098 24.4145 3.65069C24.8711 3.6292 25.3251 4.21477 25.1666 4.75737C24.898 5.67602 25.0968 5.99298 25.2177 6.29114C25.36 6.65108 25.5776 7.04326 25.4245 7.39782C25.2714 7.75239 24.9141 7.77657 24.4548 7.47035C24.3527 7.40588 23.2487 6.72898 23.281 5.2731Z" fill="#FF847A"/>
<path d="M31.041 25.7225C29.3273 24.6105 27.4685 25.7171 27.4685 25.7171C27.4685 25.7171 27.8526 23.9255 26.4182 22.8752C24.6964 21.6128 22.3353 22.0345 21.3657 24.7233C20.2563 27.7989 23.1009 33.155 23.1009 33.155C23.1009 33.155 28.6343 33.3726 31.213 30.9819C33.3108 29.0399 32.3358 26.5633 31.041 25.7225Z" fill="#F44336"/>
<path d="M31.041 25.7225C31.041 25.7225 30.6166 25.4539 30.3641 25.4056C30.3641 25.4056 31.2075 26.3753 31.3365 27.7022C31.4197 28.5779 31.1914 29.6067 30.2056 30.6166C28.0675 32.8058 23.4715 33.1416 23.1304 33.1577C23.536 33.1711 28.7363 33.2813 31.2156 30.9846C33.3108 29.0399 32.3357 26.5633 31.041 25.7225Z" fill="#C62828"/>
<path d="M27.3773 26.0019C27.4525 25.7225 27.4848 25.4324 27.4955 25.2605C27.5465 24.3956 27.3343 23.853 26.8616 23.2943C26.3861 22.7356 25.677 22.4347 25.677 22.4347C25.677 22.4347 26.3029 22.8591 26.4909 23.9604C26.5903 24.538 26.55 25.1343 26.413 25.7064C26.3646 25.9132 26.3029 26.1228 26.3378 26.3323C26.3727 26.5418 26.5312 26.7486 26.7434 26.754C27.0845 26.7647 27.2726 26.3941 27.3773 26.0019Z" fill="#C62828"/>
<path d="M23.2728 23.5226C23.8637 23.125 24.7233 22.8349 25.2524 23.5118C25.5318 23.8718 25.3169 24.5782 24.7823 24.7636C23.8771 25.0725 23.7321 25.419 23.5575 25.6876C23.348 26.0126 23.1492 26.4155 22.7704 26.4934C22.3917 26.5713 22.1688 26.2946 22.1526 25.7413C22.15 25.6285 22.064 24.3365 23.2728 23.5226Z" fill="#FF847A"/>
<path d="M7.3173 15.9209C5.40478 16.6381 5.18989 18.7897 5.18989 18.7897C5.18989 18.7897 3.97577 17.4171 2.28083 17.9462C0.242063 18.5828 -0.821639 20.7317 0.765856 23.1089C2.58167 25.8273 8.57977 26.7218 8.57977 26.7218C8.57977 26.7218 12.0422 22.3998 11.6527 18.9052C11.3357 16.0633 8.76511 15.3783 7.3173 15.9209Z" fill="#F44336"/>
<path d="M7.31728 15.9209C7.31728 15.9209 6.84989 16.1035 6.66187 16.2781C6.66187 16.2781 7.94314 16.1761 9.08743 16.861C9.83954 17.3123 10.5326 18.1074 10.7582 19.5015C11.2471 22.5233 8.78658 26.4182 8.59856 26.7029C8.84836 26.3833 12.0287 22.2655 11.6527 18.9078C11.3357 16.0632 8.76509 15.3783 7.31728 15.9209Z" fill="#C62828"/>
<path d="M5.36728 19.0341C5.18731 18.8085 4.97242 18.6097 4.83811 18.4996C4.17196 17.9435 3.61056 17.7931 2.87993 17.8415C2.14662 17.8898 1.48584 18.2847 1.48584 18.2847C1.48584 18.2847 2.20035 18.0322 3.1969 18.5345C3.72069 18.7977 4.17733 19.1845 4.55607 19.6331C4.69306 19.7943 4.82737 19.9689 5.0154 20.0656C5.20343 20.1623 5.46666 20.1569 5.5956 19.9904C5.80512 19.7217 5.61977 19.3484 5.36728 19.0341Z" fill="#C62828"/>
<path d="M0.932465 20.8607C0.964698 20.1488 1.24137 19.2839 2.10093 19.2624C2.55757 19.2517 2.99809 19.8453 2.82618 20.3852C2.53876 21.2985 2.72948 21.6181 2.84229 21.919C2.97929 22.2816 3.18612 22.6792 3.02495 23.031C2.86378 23.3829 2.50653 23.399 2.05258 23.0821C1.95856 23.0149 0.870684 22.3165 0.932465 20.8607Z" fill="#FF847A"/>
<defs>
<radialGradient id="paint0_radial_0_56" cx="0" cy="0" r="1" gradientUnits="userSpaceOnUse" gradientTransform="translate(16.8825 16.7616) scale(15.3 15.3)">
<stop offset="0.5" stop-color="#FDE030"/>
<stop offset="0.9188" stop-color="#F7C02B"/>
<stop offset="1" stop-color="#F4A223"/>
</radialGradient>
<radialGradient id="paint1_radial_0_56" cx="0" cy="0" r="1" gradientUnits="userSpaceOnUse" gradientTransform="translate(7.11858 16.7425) scale(5.11383 4.85791)">
<stop stop-color="#ED7770"/>
<stop offset="0.9" stop-color="#ED7770" stop-opacity="0"/>
</radialGradient>
<radialGradient id="paint2_radial_0_56" cx="0" cy="0" r="1" gradientUnits="userSpaceOnUse" gradientTransform="translate(26.8622 16.7425) scale(5.11383 4.85791)">
<stop stop-color="#ED7770"/>
<stop offset="0.9" stop-color="#ED7770" stop-opacity="0"/>
</radialGradient>
</defs>
</svg>
