<svg width="53" height="77" viewBox="0 0 53 77" fill="none" xmlns="http://www.w3.org/2000/svg">
<path opacity="0.3" d="M24.436 71.9855C24.6013 68.3474 24.7809 66.5611 24.9369 62.9212C17.7219 62.2669 16.7984 59.2068 12.968 56.1471C9.40184 53.2985 4.6082 50.9337 2.23727 46.9209C0.732534 44.3741 -0.914533 39.4217 0.603251 36.5923C2.41859 33.2081 7.96901 35.7306 10.2329 37.0482C14.1568 39.3319 17.3169 42.6647 20.2503 46.0974C20.7319 46.6611 21.1654 47.198 21.3536 47.9252L21.2862 47.6646L20.9041 46.1878C20.231 43.5862 19.4713 41.0611 18.6212 38.511C18.0098 36.6772 17.6886 34.7959 17.4261 32.8885C17.3516 32.3473 17.239 31.6633 17.0071 31.1617C16.8235 30.7646 16.293 30.3826 15.9925 30.0711C15.0166 29.0589 14.1113 28.0494 13.3066 26.8918C10.6617 23.0876 8.12778 19.1512 7.0894 14.5792C6.49804 11.9755 4.6884 5.33512 8.5866 4.09858C10.3082 3.55248 12.1789 4.59575 13.3759 5.73265C15.3662 7.62317 16.5969 10.0122 17.6259 12.5205C17.8167 12.9855 18.5305 15.2813 18.5515 13.3746C18.5955 9.37051 18.3859 5.83298 20.5641 2.30646C22.0995 -0.179338 26.0552 -0.825383 28.2154 1.20733C29.9058 2.79803 30.3358 5.43758 30.6954 7.64468L30.7087 7.72671C31.0894 10.0624 31.0648 12.2617 30.9215 14.6044C30.8917 15.0903 31.829 26.1981 32.3941 24.2337C34.1873 17.9996 35.3059 13.3737 37.7882 10.5751C37.7882 10.5751 41.25 5.36076 43.3417 5.42209C45.3552 5.48113 46.299 6.29514 46.5523 8.33584C46.8903 11.0601 46.2692 13.8811 45.9881 16.5824C45.5908 20.4014 45.4069 24.2526 44.5313 28.0072C43.6468 31.7999 41.9465 35.1708 39.9451 38.4808C38.3379 41.1388 36.3502 43.5014 34.5777 46.0422C34.4651 46.2037 33.1528 47.9134 33.8455 47.5478C36.3886 46.2054 38.9042 44.6296 41.7045 43.8832C43.6532 43.3638 45.5981 42.9485 47.6217 42.8898C48.6682 42.8595 50.1727 42.7005 51.1481 43.1545C52.4451 43.7582 52.9667 45.5581 52.7587 46.8715C52.4765 48.6538 51.2046 50.3105 50.1349 51.7038L50.1272 51.7138C48.0721 54.3907 45.0375 56.3397 42.4017 58.4025C40.153 60.1624 37.868 62.1488 35.303 63.4646C34.0906 64.0864 32.3497 64.1641 32.3916 65.7564C32.4705 68.7524 32.7827 71.6637 33.2301 74.6225C33.4806 76.2792 32.5973 76.2691 31.1915 76.6329C29.7299 77.011 25.7384 77.5093 24.9195 75.7532C24.3895 74.6166 24.3808 73.202 24.436 71.9855Z" fill="white"/>
</svg>
