<svg width="34" height="33" viewBox="0 0 34 33" fill="none" xmlns="http://www.w3.org/2000/svg">
<path d="M17.1569 32.4667C9.05475 32.4667 0.313721 27.3847 0.313721 16.2333C0.313721 5.082 9.05475 0 17.1569 0C21.6581 0 25.8108 1.48104 28.8891 4.18176C32.2287 7.14383 34.0001 11.3256 34.0001 16.2333C34.0001 21.1411 32.2287 25.2938 28.8891 28.2559C25.8108 30.9566 21.6291 32.4667 17.1569 32.4667Z" fill="url(#paint0_radial_0_87)"/>
<path d="M31.064 6.58337C32.6118 9.08081 33.4191 12.0545 33.4191 15.3622C33.4191 20.2699 31.6477 24.4226 28.3081 27.3847C25.2298 30.0854 21.0481 31.5955 16.5759 31.5955C11.3313 31.5955 5.83114 29.4611 2.58447 24.9337C5.70917 30.0622 11.5869 32.4667 17.1567 32.4667C21.6289 32.4667 25.8106 30.9566 28.8889 28.2559C32.2285 25.2938 33.9999 21.1411 33.9999 16.2334C33.9999 12.5337 32.9922 9.24634 31.064 6.58337Z" fill="#EB8F00"/>
<path d="M17.273 23.2755C20.4151 23.2755 22.4508 25.5755 22.9794 26.6355C23.1826 27.0449 23.1943 27.3847 23.02 27.5444C22.8371 27.6635 22.5989 27.6635 22.416 27.5444C22.326 27.5009 22.2359 27.4515 22.1546 27.3934C19.2361 25.3025 15.3128 25.3025 12.3943 27.3934C12.313 27.4515 12.2259 27.5009 12.1329 27.5444C11.95 27.6664 11.7119 27.6664 11.5289 27.5444C11.3547 27.3847 11.3663 27.0449 11.5696 26.6355C12.0952 25.5784 14.1309 23.2755 17.273 23.2755Z" fill="#422B0D"/>
<path d="M6.64144 9.51639C6.00256 9.62965 5.97062 10.5589 6.66757 10.5909C8.20669 10.6141 9.69354 10.0449 10.8261 9.00238C11.2559 8.63067 11.6218 8.19217 11.9035 7.69849C12.0719 7.45746 12.0138 7.1264 11.7757 6.95507C11.5376 6.78373 11.2036 6.84471 11.0323 7.08284L11.0032 7.11188C9.86197 8.38674 8.32576 9.2318 6.64144 9.51639Z" fill="#422B0D"/>
<path d="M23.6965 7.12061L23.6675 7.09157C23.4991 6.85054 23.1651 6.79246 22.9241 6.96089C22.683 7.12933 22.625 7.46329 22.7963 7.70432C23.0809 8.19509 23.4468 8.6336 23.8795 9.0024C25.012 10.0449 26.4989 10.6112 28.038 10.5851C28.735 10.5531 28.703 9.62386 28.0612 9.5106C26.3769 9.22892 24.8407 8.38676 23.6965 7.12061Z" fill="#422B0D"/>
<path d="M4.356 29.04C1.89921 29.04 0 26.6558 0 24.6143C0 23.1797 0.641783 21.5157 1.55073 19.21C1.66399 18.8702 1.815 18.5275 1.96601 18.15C2.3987 17.0697 2.77913 15.8994 3.35992 14.8859C3.6358 14.3922 4.26016 14.218 4.75094 14.4939C4.91356 14.5868 5.05005 14.7204 5.14298 14.8859C5.68312 15.882 6.05483 16.9594 6.61531 18.2168C8.20379 21.7713 8.6481 23.2088 8.6481 24.6433C8.70328 26.6674 6.77503 29.04 4.356 29.04Z" fill="url(#paint1_radial_0_87)"/>
<path d="M7.01324 26.3247C6.45858 27.1959 5.19824 27.0217 5.19824 25.5958C5.19824 24.684 5.3841 20.0027 6.16818 20.659C7.44013 21.7248 7.80313 25.1109 7.01324 26.3247Z" fill="#81D4FA"/>
<path d="M11.6596 13.9218C10.4428 13.9218 9.33643 14.9498 9.33643 16.6573C9.33643 18.3649 10.4428 19.39 11.6596 19.39C12.8764 19.39 13.9828 18.362 13.9828 16.6573C13.9828 14.9527 12.8764 13.9218 11.6596 13.9218Z" fill="#422B0D"/>
<path d="M11.5462 15.063C11.1339 14.8656 10.6373 15.0398 10.4369 15.4522C10.283 15.7745 10.3527 16.1608 10.6111 16.4105C11.0235 16.608 11.5201 16.4337 11.7205 16.0214C11.8744 15.699 11.8047 15.3128 11.5462 15.063Z" fill="#896024"/>
<path d="M22.7905 13.9218C21.5737 13.9218 20.4673 14.9498 20.4673 16.6573C20.4673 18.3649 21.5737 19.39 22.7905 19.39C24.0073 19.39 25.1137 18.362 25.1137 16.6573C25.1137 14.9527 24.0131 13.9218 22.7905 13.9218Z" fill="#422B0D"/>
<path d="M22.6832 15.063C22.2708 14.8656 21.7742 15.0398 21.5739 15.4522C21.4199 15.7745 21.4896 16.1608 21.7481 16.4105C22.1605 16.608 22.657 16.4337 22.8574 16.0214C23.0113 15.699 22.9416 15.3128 22.6832 15.063Z" fill="#896024"/>
<defs>
<radialGradient id="paint0_radial_0_87" cx="0" cy="0" r="1" gradientUnits="userSpaceOnUse" gradientTransform="translate(17.1569 16.2333) scale(16.5411 16.5411)">
<stop offset="0.5" stop-color="#FDE030"/>
<stop offset="0.92" stop-color="#F7C02B"/>
<stop offset="1" stop-color="#F4A223"/>
</radialGradient>
<radialGradient id="paint1_radial_0_87" cx="0" cy="0" r="1" gradientUnits="userSpaceOnUse" gradientTransform="translate(4.66672 16.2451) scale(9.69935 14.937)">
<stop offset="0.46" stop-color="#29B6F6"/>
<stop offset="1" stop-color="#1E88E5"/>
</radialGradient>
</defs>
</svg>
