<svg width="74" height="64" viewBox="0 0 74 64" fill="none" xmlns="http://www.w3.org/2000/svg">
<line x1="1.5" y1="-1.5" x2="30.5" y2="-1.5" transform="matrix(-3.98407e-08 -1 -1 2.27917e-07 0 48)" stroke="#5EC737" stroke-width="3" stroke-linecap="round"/>
<line x1="1.5" y1="-1.5" x2="30.5" y2="-1.5" transform="matrix(-3.98407e-08 -1 -1 2.27917e-07 0 48)" stroke="black" stroke-opacity="0.2" stroke-width="3" stroke-linecap="round"/>
<line x1="1.5" y1="-1.5" x2="30.5" y2="-1.5" transform="matrix(-5.80015e-08 -1 -1 1.56554e-07 5.46143 48)" stroke="#5EC737" stroke-width="3" stroke-linecap="round"/>
<line x1="1.5" y1="-1.5" x2="30.5" y2="-1.5" transform="matrix(-5.80015e-08 -1 -1 1.56554e-07 5.46143 48)" stroke="black" stroke-opacity="0.2" stroke-width="3" stroke-linecap="round"/>
<line x1="1.5" y1="-1.5" x2="30.5" y2="-1.5" transform="matrix(-6.39895e-08 -1 -1 1.41904e-07 10.9229 48)" stroke="#5EC737" stroke-width="3" stroke-linecap="round"/>
<line x1="1.5" y1="-1.5" x2="30.5" y2="-1.5" transform="matrix(-6.39895e-08 -1 -1 1.41904e-07 10.9229 48)" stroke="black" stroke-opacity="0.2" stroke-width="3" stroke-linecap="round"/>
<line x1="1.5" y1="-1.5" x2="53.0185" y2="-1.5" transform="matrix(-3.12234e-08 -1 -1 6.11942e-08 16.3848 59.259)" stroke="#5EC737" stroke-width="3" stroke-linecap="round"/>
<line x1="1.5" y1="-1.5" x2="53.0185" y2="-1.5" transform="matrix(-3.12234e-08 -1 -1 6.11942e-08 16.3848 59.259)" stroke="black" stroke-opacity="0.2" stroke-width="3" stroke-linecap="round"/>
<line x1="1.5" y1="-1.5" x2="53.0185" y2="-1.5" transform="matrix(-3.10445e-08 -1 -1 6.15469e-08 21.8462 59.259)" stroke="#5EC737" stroke-width="3" stroke-linecap="round"/>
<line x1="1.5" y1="-1.5" x2="53.0185" y2="-1.5" transform="matrix(-3.10445e-08 -1 -1 6.15469e-08 21.8462 59.259)" stroke="black" stroke-opacity="0.2" stroke-width="3" stroke-linecap="round"/>
<line x1="1.5" y1="-1.5" x2="53.0185" y2="-1.5" transform="matrix(-3.11998e-08 -1 -1 6.12405e-08 27.3076 59.259)" stroke="#5EC737" stroke-width="3" stroke-linecap="round"/>
<line x1="1.5" y1="-1.5" x2="53.0185" y2="-1.5" transform="matrix(-3.11998e-08 -1 -1 6.12405e-08 27.3076 59.259)" stroke="black" stroke-opacity="0.2" stroke-width="3" stroke-linecap="round"/>
<line x1="1.5" y1="-1.5" x2="62.5" y2="-1.5" transform="matrix(-3.13525e-08 -1 -1 6.09421e-08 32.7695 64)" stroke="#5EC737" stroke-width="3" stroke-linecap="round"/>
<line x1="1.5" y1="-1.5" x2="62.5" y2="-1.5" transform="matrix(-3.13525e-08 -1 -1 6.09421e-08 32.7695 64)" stroke="black" stroke-opacity="0.2" stroke-width="3" stroke-linecap="round"/>
<line x1="1.5" y1="-1.5" x2="62.5" y2="-1.5" transform="matrix(-3.16082e-08 -1 -1 6.04491e-08 38.2305 64)" stroke="#5EC737" stroke-width="3" stroke-linecap="round"/>
<line x1="1.5" y1="-1.5" x2="62.5" y2="-1.5" transform="matrix(-3.16082e-08 -1 -1 6.04491e-08 38.2305 64)" stroke="black" stroke-opacity="0.2" stroke-width="3" stroke-linecap="round"/>
<line x1="1.5" y1="-1.5" x2="62.5" y2="-1.5" transform="matrix(-3.18496e-08 -1 -1 5.9991e-08 43.6924 64)" stroke="#5EC737" stroke-width="3" stroke-linecap="round"/>
<line x1="1.5" y1="-1.5" x2="62.5" y2="-1.5" transform="matrix(-3.18496e-08 -1 -1 5.9991e-08 43.6924 64)" stroke="black" stroke-opacity="0.2" stroke-width="3" stroke-linecap="round"/>
<line x1="1.5" y1="-1.5" x2="53.0185" y2="-1.5" transform="matrix(-3.17583e-08 -1 -1 6.01634e-08 49.1538 59.259)" stroke="#5EC737" stroke-width="3" stroke-linecap="round"/>
<line x1="1.5" y1="-1.5" x2="53.0185" y2="-1.5" transform="matrix(-3.17583e-08 -1 -1 6.01634e-08 49.1538 59.259)" stroke="black" stroke-opacity="0.2" stroke-width="3" stroke-linecap="round"/>
<line x1="1.5" y1="-1.5" x2="53.0185" y2="-1.5" transform="matrix(-3.17587e-08 -1 -1 6.01627e-08 54.6152 59.259)" stroke="#5EC737" stroke-width="3" stroke-linecap="round"/>
<line x1="1.5" y1="-1.5" x2="53.0185" y2="-1.5" transform="matrix(-3.17587e-08 -1 -1 6.01627e-08 54.6152 59.259)" stroke="black" stroke-opacity="0.2" stroke-width="3" stroke-linecap="round"/>
<line x1="1.5" y1="-1.5" x2="53.0185" y2="-1.5" transform="matrix(-3.15636e-08 -1 -1 6.05346e-08 60.0771 59.259)" stroke="#5EC737" stroke-width="3" stroke-linecap="round"/>
<line x1="1.5" y1="-1.5" x2="53.0185" y2="-1.5" transform="matrix(-3.15636e-08 -1 -1 6.05346e-08 60.0771 59.259)" stroke="black" stroke-opacity="0.2" stroke-width="3" stroke-linecap="round"/>
<line x1="1.5" y1="-1.5" x2="55.3889" y2="-1.5" transform="matrix(-3.18365e-08 -1 -1 6.00157e-08 65.5386 60.4443)" stroke="#5EC737" stroke-width="3" stroke-linecap="round"/>
<line x1="1.5" y1="-1.5" x2="55.3889" y2="-1.5" transform="matrix(-3.18365e-08 -1 -1 6.00157e-08 65.5386 60.4443)" stroke="black" stroke-opacity="0.2" stroke-width="3" stroke-linecap="round"/>
<line x1="1.5" y1="-1.5" x2="55.3889" y2="-1.5" transform="matrix(-3.18499e-08 -1 -1 5.99904e-08 71 60.4443)" stroke="#5EC737" stroke-width="3" stroke-linecap="round"/>
<line x1="1.5" y1="-1.5" x2="55.3889" y2="-1.5" transform="matrix(-3.18499e-08 -1 -1 5.99904e-08 71 60.4443)" stroke="black" stroke-opacity="0.2" stroke-width="3" stroke-linecap="round"/>
</svg>
