<svg width="24" height="24" viewBox="0 0 24 24" fill="none" xmlns="http://www.w3.org/2000/svg">
<path d="M3 12C3 11.8011 3.07902 11.6103 3.21967 11.4697C3.36032 11.329 3.55109 11.25 3.75 11.25H15C15.1989 11.25 15.3897 11.329 15.5303 11.4697C15.671 11.6103 15.75 11.8011 15.75 12C15.75 12.1989 15.671 12.3897 15.5303 12.5303C15.3897 12.671 15.1989 12.75 15 12.75H3.75C3.55109 12.75 3.36032 12.671 3.21967 12.5303C3.07902 12.3897 3 12.1989 3 12ZM3.75 6.75H20.25C20.4489 6.75 20.6397 6.67098 20.7803 6.53033C20.921 6.38968 21 6.19891 21 6C21 5.80109 20.921 5.61032 20.7803 5.46967C20.6397 5.32902 20.4489 5.25 20.25 5.25H3.75C3.55109 5.25 3.36032 5.32902 3.21967 5.46967C3.07902 5.61032 3 5.80109 3 6C3 6.19891 3.07902 6.38968 3.21967 6.53033C3.36032 6.67098 3.55109 6.75 3.75 6.75ZM22.7156 10.9031L18.9656 9.77813C18.8527 9.74632 18.7341 9.74076 18.6187 9.76188C18.5033 9.78301 18.3943 9.83025 18.3 9.9C18.2074 9.97036 18.1322 10.061 18.0802 10.1651C18.0281 10.2691 18.0007 10.3837 18 10.5V15.4031C17.428 15.0729 16.7631 14.9406 16.1083 15.0269C15.4535 15.1131 14.8454 15.413 14.3785 15.8801C13.9115 16.3472 13.6117 16.9553 13.5256 17.6101C13.4395 18.2649 13.5719 18.9298 13.9022 19.5017C14.2326 20.0736 14.7424 20.5205 15.3526 20.7731C15.9629 21.0257 16.6394 21.0699 17.2773 20.8987C17.9152 20.7276 18.4788 20.3508 18.8807 19.8267C19.2826 19.3025 19.5003 18.6605 19.5 18V11.5125L22.2844 12.3469C22.4758 12.4041 22.6822 12.3829 22.858 12.2879C23.0338 12.193 23.1647 12.0321 23.2219 11.8406C23.2791 11.6492 23.2579 11.4428 23.1629 11.267C23.068 11.0912 22.9071 10.9603 22.7156 10.9031ZM10.5 17.25H3.75C3.55109 17.25 3.36032 17.329 3.21967 17.4697C3.07902 17.6103 3 17.8011 3 18C3 18.1989 3.07902 18.3897 3.21967 18.5303C3.36032 18.671 3.55109 18.75 3.75 18.75H10.5C10.6989 18.75 10.8897 18.671 11.0303 18.5303C11.171 18.3897 11.25 18.1989 11.25 18C11.25 17.8011 11.171 17.6103 11.0303 17.4697C10.8897 17.329 10.6989 17.25 10.5 17.25Z" fill="#2B3443"/>
</svg>
