<svg width="124" height="66" viewBox="0 0 124 66" fill="none" xmlns="http://www.w3.org/2000/svg">
<g opacity="0.4">
<path d="M11.2009 24.1527C10.4396 23.1371 8.84077 23.3715 8.38397 24.5433C5.71931 31.418 3.13084 38.2927 0.922986 45.3236C0.618454 45.558 0.390018 45.7923 0.313885 46.1048C0.161619 46.5735 0.161619 46.9642 0.313885 47.3548C0.237752 47.5891 0.161674 47.9016 0.0855414 48.136C-0.523523 50.089 2.29333 51.339 3.05466 49.3859C8.07944 51.8858 13.1804 53.9951 18.5097 55.7138C24.3719 57.5887 30.3865 58.9949 36.401 60.4792C37.8475 60.7917 38.9133 58.7605 37.9997 57.6668C28.3308 47.0423 19.4233 35.8709 11.2009 24.1527ZM4.19665 45.8704C6.25224 40.1676 8.23178 34.3866 10.3635 28.6837C16.9871 37.9802 24.0674 47.0423 31.5284 55.7138C27.4172 54.6982 23.3822 53.6045 19.3471 52.2764C14.094 50.5577 9.06917 48.3703 4.19665 45.8704Z" fill="#5EC737" fill-opacity="0.4"/>
<path d="M54.6729 0.16937C49.3436 2.74738 44.0143 5.24727 38.685 7.82528C36.0203 9.07522 33.2796 10.4033 30.6149 11.6532C28.5593 12.6688 24.6004 13.6844 25.2095 16.8093C25.4379 18.1373 26.4276 19.3091 27.1128 20.481C27.8741 21.809 28.6355 23.1371 29.4729 24.4652C30.9195 27.0432 32.4421 29.5431 33.8886 32.1211C36.8578 37.199 39.827 42.355 42.7962 47.4329C46.1461 53.2139 49.4959 58.9949 52.9218 64.6977C53.8354 66.2602 56.5001 64.854 55.891 63.2134C56.1956 62.9009 56.424 62.5103 56.5001 62.0416C60.2307 46.6517 59.85 30.6368 58.4796 15.0125C58.0989 10.5595 57.6422 6.1066 57.1854 1.57556C57.0331 0.481856 55.7388 -0.37748 54.6729 0.16937ZM55.1297 48.6047C54.7491 52.1202 54.2162 55.5575 53.4548 58.9949C48.6584 50.5577 43.786 42.1206 38.9134 33.6835C36.0965 28.84 33.2796 23.9964 30.5388 19.1529C30.2343 18.606 29.9297 18.0592 29.549 17.5123C29.3206 17.1999 29.1683 16.8874 28.9399 16.4968C29.7013 16.1843 31.4523 15.2468 31.6046 15.1687C34.117 13.9969 36.6294 12.7469 39.1418 11.5751C44.0143 9.23146 48.8869 6.88782 53.7594 4.6223C55.3582 19.231 56.6524 33.996 55.1297 48.6047Z" fill="#5EC737" fill-opacity="0.4"/>
<path d="M123.269 32.043C113.828 24.8558 105.073 16.7312 97.3834 7.66906C96.6221 6.80972 95.0994 6.57536 94.4142 7.66906C86.7248 19.5435 79.6445 31.8086 73.1732 44.3862C71.346 47.9798 69.5188 51.4952 67.8439 55.1669C67.4632 56.0263 67.9961 57.12 68.7574 57.5106C69.2142 57.6668 69.5949 57.6668 69.9755 57.5106C70.4323 58.0574 71.1937 58.2918 72.1073 57.9793C78.8831 55.2451 84.8976 51.1046 91.2928 47.511C97.6118 43.9956 104.388 41.2613 111.24 38.9958C115.122 37.6677 119.005 36.574 122.888 35.4803C124.258 35.0897 124.335 32.9023 123.269 32.043ZM100.733 38.6052C93.9574 41.3394 87.7145 44.933 81.3955 48.6829C78.5024 50.4015 75.6094 51.964 72.5641 53.3701C78.3502 42.0425 84.3646 30.8712 90.9882 20.0123C92.6631 17.278 94.3381 14.6219 96.0131 11.9657C102.637 19.5435 109.869 26.4963 117.711 32.8242C112.001 34.4647 106.291 36.3397 100.733 38.6052Z" fill="#5EC737" fill-opacity="0.4"/>
</g>
</svg>
