<svg width="102" height="104" viewBox="0 0 102 104" fill="none" xmlns="http://www.w3.org/2000/svg">
<g style="mix-blend-mode:screen" opacity="0.3">
<path d="M3.94434 16.6674C-1.34909 16.1331 -0.757992 12.7578 2.44947 9.45877C8.61709 3.11505 17.1095 0.448974 23.1931 0.0291049C27.1539 -0.244328 29.8324 1.40921 30.8461 4.97486C31.6229 7.70726 30.6131 11.5962 28.1897 15.6487C24.8742 21.1933 19.0029 27.4803 17.061 30.6343C16.9786 30.7675 16.89 30.9522 16.8029 31.1682C17.939 30.4966 19.211 29.5511 20.603 28.562C27.5063 23.6575 35.5924 16.2474 40.0558 13.7455C41.2576 13.0752 48.9548 8.65124 52.2422 8.31501C55.1293 8.01971 56.9755 9.27281 57.9716 10.7771C59.2141 12.6535 59.5172 14.9199 58.7571 17.3981C57.61 21.1375 52.8583 25.9457 51.4327 27.7424C45.6912 34.912 39.5177 41.5977 33.7705 48.6847C31.3954 51.6136 29.0895 54.6084 26.9323 57.7481C26.4671 58.4253 24.3136 61.1316 22.8151 63.9076C22.7107 64.1007 22.6047 64.3206 22.5037 64.5499C23.4019 64.2477 24.2764 63.7246 25.1343 63.1417C28.6888 60.7254 31.8167 56.9414 34.1765 54.6114C40.788 48.0703 47.1021 41.0781 53.8587 34.6076C58.5269 30.137 63.3967 25.903 68.7468 22.2526C71.8321 20.0483 80.2291 14.535 86.9712 12.7578C92.2396 11.3691 96.6765 12.4389 99.4025 15.7559C101.59 18.4142 101.85 22.2242 100.647 26.398C98.9669 32.227 93.8862 38.9683 91.812 41.3928C87.8585 45.9053 83.6026 50.2121 79.0297 54.2291C72.5781 59.8963 65.6263 65.055 59.5993 71.081C57.1895 73.4908 54.8876 75.9927 52.8005 78.6883C51.7728 80.0305 47.9874 84.5816 45.3204 89.1988C44.5913 90.4613 44.4414 92.199 44.1217 93.415C44.5518 93.3293 44.9958 93.2058 45.4343 93.1063C47.7906 92.5716 50.0997 91.4496 51.6918 90.5782C57.5162 87.3871 62.313 84.3499 66.8025 80.8361C71.1967 77.3967 75.2735 73.4828 79.7627 68.5503L90.9779 57.7481C97.8618 50.8172 106.139 59.3769 99.6458 65.9771L88.7178 76.686C83.562 82.0059 78.8798 86.1861 73.8898 89.8625C68.8276 93.5921 63.4667 96.8231 56.9515 100.168C54.1166 101.627 49.7277 103.443 45.605 103.887C41.6999 104.307 38.017 103.581 35.2548 101.323C32.7588 99.2838 31.6351 95.7299 32.9308 91.1623C34.7862 84.6216 42.1971 74.5312 43.8037 72.2893C47.1197 67.5383 50.9581 63.2104 55.0654 59.0979C60.519 53.6375 66.3147 48.4269 72.19 43.377C75.9439 40.1504 79.8095 37.0993 83.2925 33.6676C84.3802 32.6092 86.4872 30.3957 88.3183 27.8055C89.3619 26.3292 90.3834 24.7735 90.9779 23.241C91.1719 22.7406 91.3696 22.2679 91.438 21.8C91.563 20.9432 90.7618 21.2249 89.988 21.1611C88.3151 21.3429 86.444 21.9072 84.5909 22.6644C79.9485 24.5612 75.4005 27.4682 73.3724 28.8009C68.4016 32.2016 63.8625 36.1303 59.5515 40.3171C52.8768 46.7994 46.7276 53.8726 40.2362 60.4607C37.1177 63.6322 32.6921 68.9439 27.8037 71.5695C24.8362 73.1633 21.6895 73.8528 18.4989 73.2802C14.5652 72.5755 13.0381 70.1792 12.8403 67.0493C12.7379 65.4268 13.2313 63.3597 14.1801 61.2416C15.7957 57.6351 18.7663 53.69 19.3559 52.8009C21.5954 49.4246 23.988 46.1943 26.468 43.0424C31.7524 36.3262 37.4366 29.9739 42.7733 23.2415C37.4868 26.8283 29.2801 34.2486 22.8896 38.0704C19.4894 40.1037 16.3826 41.1843 14.1166 41.1645C10.1113 41.1294 8.19027 39.1986 7.28807 36.8076C6.81652 35.5577 6.66479 34.0282 6.92147 32.4054C7.28985 30.0775 8.48056 27.4726 9.43629 25.986C11.198 23.2543 15.9832 18.1896 19.4956 13.2847C20.6528 11.6686 22.8896 9.45877 22.277 8.6369C21.6644 7.81503 10.1069 14.4122 10.1069 14.4122C9.43843 14.8041 8.41048 15.4823 7.4229 15.9365C7.18313 16.0929 6.91649 16.2325 6.62193 16.3514C5.83696 16.6683 4.43938 16.7172 3.94434 16.6674Z" fill="white"/>
</g>
</svg>
