<svg width="24" height="24" viewBox="0 0 24 24" fill="none" xmlns="http://www.w3.org/2000/svg">
<g opacity="0.4">
<path d="M11.3364 0.414539L6.25732 1.50912C6.07525 1.54794 5.912 1.648 5.79476 1.79261C5.67753 1.93721 5.6134 2.11763 5.61307 2.30379V11.0448C5.24249 10.9161 4.8529 10.8506 4.4606 10.8511C2.68666 10.8511 1.24854 12.1537 1.24854 13.7605C1.24854 15.3673 2.68666 16.6699 4.46064 16.6699C5.67977 16.6699 6.89913 16.0073 7.40594 14.8774C7.84643 13.8956 7.67266 12.7152 7.67266 11.6621V4.67449L14.6673 3.0499C14.6433 1.32171 13.0342 0.0486331 11.3364 0.414539Z" fill="white"/>
<path d="M11.3338 8.46897V17.8273C11.3336 17.8496 11.3283 17.8716 11.3183 17.8915C11.3082 17.9114 11.2936 17.9287 11.2757 17.942C11.2577 17.9553 11.237 17.9643 11.215 17.9682C11.193 17.9721 11.1704 17.9708 11.149 17.9644C10.8343 17.8745 10.5086 17.829 10.1813 17.8293C8.40732 17.8293 6.96924 19.1319 6.96924 20.7388C6.96924 22.3456 8.40732 23.6482 10.1813 23.6482C11.4004 23.6482 12.6198 22.9855 13.1266 21.8557C13.5671 20.8738 13.3934 19.6934 13.3934 18.6404V11.0289C13.3935 10.9749 13.4118 10.9226 13.4454 10.8804C13.4791 10.8383 13.526 10.8087 13.5785 10.7966L20.3881 9.21508C20.4231 9.20683 20.4596 9.2066 20.4948 9.21442C20.5299 9.22223 20.5629 9.23788 20.5912 9.2602C20.6194 9.28253 20.6423 9.31094 20.6581 9.34334C20.6739 9.37573 20.6821 9.41127 20.6822 9.44729V17.1118C20.6821 17.1341 20.6768 17.1561 20.6667 17.1761C20.6567 17.196 20.6421 17.2133 20.6242 17.2266C20.6062 17.2399 20.5855 17.2489 20.5635 17.2528C20.5415 17.2566 20.5189 17.2554 20.4975 17.249C20.1828 17.1591 19.8571 17.1136 19.5298 17.1139C17.7558 17.1139 16.3177 18.4165 16.3177 20.0233C16.3177 21.6302 17.7558 22.9328 19.5297 22.9328C20.6033 22.9328 21.6707 22.377 22.2728 21.4678C22.8562 20.5867 22.7421 19.6612 22.7418 18.6657C22.7413 16.8903 22.7413 15.1149 22.7418 13.3395V6.24165C22.7414 6.13454 22.7171 6.02885 22.6706 5.93235C22.6241 5.83584 22.5567 5.75096 22.4731 5.68392C22.3896 5.61687 22.2921 5.56937 22.1878 5.54489C22.0835 5.5204 21.9751 5.51956 21.8704 5.54242L11.978 7.67429C11.796 7.71312 11.6327 7.81318 11.5155 7.95778C11.3982 8.10239 11.3341 8.28281 11.3338 8.46897Z" fill="white"/>
<path d="M19.2762 9.44729C19.2761 9.41127 19.2678 9.37573 19.2521 9.34334C19.2363 9.31094 19.2134 9.28253 19.1851 9.2602C19.1569 9.23788 19.1239 9.22223 19.0887 9.21442C19.0536 9.2066 19.0171 9.20683 18.982 9.21508L12.1725 10.7966C12.1199 10.8087 12.073 10.8383 12.0394 10.8804C12.0058 10.9226 11.9874 10.9749 11.9873 11.0289V18.6404C11.9873 19.6934 12.1611 20.8738 11.7206 21.8558C11.3111 22.7687 10.4362 23.3764 9.47217 23.5761C9.70559 23.624 9.94325 23.6481 10.1815 23.6482C11.4007 23.6482 12.6201 22.9855 13.1269 21.8557C13.5673 20.8738 13.3936 19.6934 13.3936 18.6404V11.0289C13.3937 10.9749 13.412 10.9226 13.4457 10.8804C13.4793 10.8383 13.5262 10.8087 13.5787 10.7966L19.2762 9.47336V9.44729ZM9.92629 17.8393C9.77578 17.85 9.62612 17.8703 9.47821 17.9001C9.56789 17.9184 9.65634 17.9396 9.74301 17.9644C9.76339 17.9704 9.78484 17.9718 9.80581 17.9685C9.82679 17.9652 9.84677 17.9573 9.8643 17.9453C9.88184 17.9333 9.8965 17.9176 9.90722 17.8992C9.91794 17.8809 9.92445 17.8604 9.92629 17.8393V17.8393ZM22.742 18.6657C22.7415 16.8903 22.7415 15.1149 22.742 13.3395V6.24165C22.7417 6.13454 22.7174 6.02885 22.6709 5.93235C22.6244 5.83584 22.5569 5.75096 22.4733 5.68392C22.3898 5.61687 22.2923 5.56937 22.188 5.54489C22.0837 5.5204 21.9753 5.51956 21.8707 5.54242L21.0957 5.70943C21.1712 5.776 21.2317 5.8579 21.2731 5.94967C21.3145 6.04144 21.3359 6.14098 21.3358 6.24165V18.6657C21.3361 19.6612 21.4501 20.5867 20.8667 21.4678C20.3853 22.1791 19.6478 22.6772 18.8081 22.8581C19.0456 22.9076 19.2874 22.9327 19.53 22.9328C20.6034 22.9328 21.6709 22.377 22.273 21.4678C22.8564 20.5867 22.7423 19.6612 22.742 18.6657ZM19.2748 17.1239C19.1243 17.1345 18.9746 17.1549 18.8267 17.1847C18.9164 17.2029 19.0048 17.2242 19.0915 17.249C19.1119 17.255 19.1333 17.2564 19.1543 17.2531C19.1753 17.2498 19.1952 17.2418 19.2128 17.2299C19.2303 17.2179 19.245 17.2022 19.2557 17.1838C19.2664 17.1655 19.2729 17.145 19.2748 17.1239Z" fill="white"/>
</g>
</svg>
