<svg width="24" height="24" viewBox="0 0 24 24" fill="none" xmlns="http://www.w3.org/2000/svg">
<path d="M15.3312 15.9671L15.3315 15.967C16.5022 15.6162 18.1031 14.9939 20.1256 14.108L20.3693 14.0012L20.4169 13.7394C20.4539 13.5361 20.4776 13.3355 20.4874 13.1378L20.4875 13.1358C20.4958 12.9525 20.5 12.7656 20.5 12.575C20.5 12.2425 20.3627 11.9511 20.1063 11.7394L20.1054 11.7387C19.8332 11.515 19.5018 11.4517 19.1684 11.5426L19.1499 11.5477L19.1318 11.5541C18.9042 11.6354 18.6509 11.7211 18.3716 11.8111L18.3706 11.8114C18.0682 11.9096 17.6954 12.0533 17.2557 12.2393C16.1206 12.7163 15.1656 13.0425 14.3859 13.2252L14.3856 13.2253C13.6069 13.4083 12.812 13.5 12 13.5C11.1722 13.5 10.3614 13.4045 9.56669 13.2138C8.76689 13.0219 7.77647 12.6902 6.5908 12.2128C6.15689 12.0293 5.81443 11.8921 5.56817 11.8041L4.87087 11.5551C4.87033 11.5549 4.86979 11.5547 4.86924 11.5545C4.71044 11.497 4.53477 11.472 4.35282 11.5045C4.16921 11.5373 4.01158 11.623 3.88225 11.737L3.88213 11.7371C3.63666 11.9538 3.5 12.2429 3.5 12.575C3.5 12.7659 3.5045 12.9532 3.51357 13.1368C3.52268 13.3349 3.54605 13.5358 3.58306 13.7394L3.62891 13.9916L3.86038 14.1016C5.55957 14.9091 7.08071 15.5119 8.42138 15.9048L8.42145 15.9048C9.75953 16.2968 10.9547 16.5 12 16.5C13.0408 16.5 14.1522 16.3194 15.3312 15.9671ZM19.4548 16.4804L20.2299 15.176L18.8312 15.7641C17.3795 16.3744 16.1124 16.815 15.027 17.0904C13.9439 17.3652 12.9355 17.5 12 17.5C11.0826 17.5 10.0486 17.3613 8.89479 17.0766L8.89453 17.0765C7.74238 16.7928 6.49328 16.3651 5.14628 15.7901L3.76326 15.1998L4.51743 16.5008C5.23205 17.7335 6.2457 18.709 7.54556 19.4258L7.54584 19.426C8.85434 20.1465 10.3436 20.5 12 20.5C13.6417 20.5 15.1196 20.1412 16.4198 19.4109C17.7095 18.6866 18.7248 17.7091 19.4548 16.4804ZM3.33713 10.9006L3.33732 10.9005C3.89906 10.4807 4.48364 10.3844 5.1448 10.6003L5.14479 10.6003L5.15086 10.6022C5.40831 10.6827 5.6793 10.7755 5.96393 10.8807C6.24745 10.9865 6.58675 11.1216 6.98269 11.2865L6.98268 11.2866L6.98681 11.2882C8.06404 11.7259 8.97154 12.0397 9.70351 12.223L9.70395 12.2231C10.4451 12.4081 11.2108 12.5 12 12.5C12.7558 12.5 13.503 12.4121 14.2408 12.2364C14.9765 12.0612 15.8603 11.751 16.8867 11.3139C17.367 11.1317 17.7545 10.9818 18.0485 10.8643L18.0489 10.8642C18.3258 10.7533 18.5975 10.6587 18.8642 10.5803C19.5275 10.3912 20.1147 10.5013 20.6734 10.9238C21.2329 11.3469 21.5 11.8831 21.5 12.575C21.5 13.8243 21.2553 14.9825 20.7695 16.0558L20.7695 16.0559C20.2793 17.1394 19.6088 18.0817 18.7567 18.8865C17.9047 19.6912 16.9001 20.329 15.7378 20.7984L15.7376 20.7985C14.5843 21.2648 13.3401 21.5 12 21.5C9.15617 21.5 6.88132 20.6601 5.12982 19.011C3.38179 17.3646 2.5 15.2344 2.5 12.575C2.5 11.8654 2.77208 11.3225 3.33713 10.9006ZM12 9.5C11.0337 9.5 10.2189 9.16176 9.52855 8.47145C8.83824 7.78113 8.5 6.96634 8.5 6C8.5 5.03366 8.83824 4.21887 9.52855 3.52855C10.2189 2.83824 11.0337 2.5 12 2.5C12.9663 2.5 13.7811 2.83824 14.4714 3.52855C15.1618 4.21887 15.5 5.03366 15.5 6C15.5 6.96634 15.1618 7.78113 14.4714 8.47145C13.7811 9.16176 12.9663 9.5 12 9.5ZM12 8.5C12.6838 8.5 13.2816 8.25048 13.7666 7.76555C14.251 7.28111 14.5 6.68354 14.5 6C14.5 5.31646 14.251 4.71889 13.7666 4.23445C13.2816 3.74952 12.6838 3.5 12 3.5C11.3163 3.5 10.7188 3.74944 10.2344 4.23445C9.74944 4.71877 9.5 5.31633 9.5 6C9.5 6.68367 9.74944 7.28123 10.2344 7.76555C10.7188 8.25056 11.3163 8.5 12 8.5Z" stroke="#5EC737"/>
<path d="M15.3312 15.9671L15.3315 15.967C16.5022 15.6162 18.1031 14.9939 20.1256 14.108L20.3693 14.0012L20.4169 13.7394C20.4539 13.5361 20.4776 13.3355 20.4874 13.1378L20.4875 13.1358C20.4958 12.9525 20.5 12.7656 20.5 12.575C20.5 12.2425 20.3627 11.9511 20.1063 11.7394L20.1054 11.7387C19.8332 11.515 19.5018 11.4517 19.1684 11.5426L19.1499 11.5477L19.1318 11.5541C18.9042 11.6354 18.6509 11.7211 18.3716 11.8111L18.3706 11.8114C18.0682 11.9096 17.6954 12.0533 17.2557 12.2393C16.1206 12.7163 15.1656 13.0425 14.3859 13.2252L14.3856 13.2253C13.6069 13.4083 12.812 13.5 12 13.5C11.1722 13.5 10.3614 13.4045 9.56669 13.2138C8.76689 13.0219 7.77647 12.6902 6.5908 12.2128C6.15689 12.0293 5.81443 11.8921 5.56817 11.8041L4.87087 11.5551C4.87033 11.5549 4.86979 11.5547 4.86924 11.5545C4.71044 11.497 4.53477 11.472 4.35282 11.5045C4.16921 11.5373 4.01158 11.623 3.88225 11.737L3.88213 11.7371C3.63666 11.9538 3.5 12.2429 3.5 12.575C3.5 12.7659 3.5045 12.9532 3.51357 13.1368C3.52268 13.3349 3.54605 13.5358 3.58306 13.7394L3.62891 13.9916L3.86038 14.1016C5.55957 14.9091 7.08071 15.5119 8.42138 15.9048L8.42145 15.9048C9.75953 16.2968 10.9547 16.5 12 16.5C13.0408 16.5 14.1522 16.3194 15.3312 15.9671ZM19.4548 16.4804L20.2299 15.176L18.8312 15.7641C17.3795 16.3744 16.1124 16.815 15.027 17.0904C13.9439 17.3652 12.9355 17.5 12 17.5C11.0826 17.5 10.0486 17.3613 8.89479 17.0766L8.89453 17.0765C7.74238 16.7928 6.49328 16.3651 5.14628 15.7901L3.76326 15.1998L4.51743 16.5008C5.23205 17.7335 6.2457 18.709 7.54556 19.4258L7.54584 19.426C8.85434 20.1465 10.3436 20.5 12 20.5C13.6417 20.5 15.1196 20.1412 16.4198 19.4109C17.7095 18.6866 18.7248 17.7091 19.4548 16.4804ZM3.33713 10.9006L3.33732 10.9005C3.89906 10.4807 4.48364 10.3844 5.1448 10.6003L5.14479 10.6003L5.15086 10.6022C5.40831 10.6827 5.6793 10.7755 5.96393 10.8807C6.24745 10.9865 6.58675 11.1216 6.98269 11.2865L6.98268 11.2866L6.98681 11.2882C8.06404 11.7259 8.97154 12.0397 9.70351 12.223L9.70395 12.2231C10.4451 12.4081 11.2108 12.5 12 12.5C12.7558 12.5 13.503 12.4121 14.2408 12.2364C14.9765 12.0612 15.8603 11.751 16.8867 11.3139C17.367 11.1317 17.7545 10.9818 18.0485 10.8643L18.0489 10.8642C18.3258 10.7533 18.5975 10.6587 18.8642 10.5803C19.5275 10.3912 20.1147 10.5013 20.6734 10.9238C21.2329 11.3469 21.5 11.8831 21.5 12.575C21.5 13.8243 21.2553 14.9825 20.7695 16.0558L20.7695 16.0559C20.2793 17.1394 19.6088 18.0817 18.7567 18.8865C17.9047 19.6912 16.9001 20.329 15.7378 20.7984L15.7376 20.7985C14.5843 21.2648 13.3401 21.5 12 21.5C9.15617 21.5 6.88132 20.6601 5.12982 19.011C3.38179 17.3646 2.5 15.2344 2.5 12.575C2.5 11.8654 2.77208 11.3225 3.33713 10.9006ZM12 9.5C11.0337 9.5 10.2189 9.16176 9.52855 8.47145C8.83824 7.78113 8.5 6.96634 8.5 6C8.5 5.03366 8.83824 4.21887 9.52855 3.52855C10.2189 2.83824 11.0337 2.5 12 2.5C12.9663 2.5 13.7811 2.83824 14.4714 3.52855C15.1618 4.21887 15.5 5.03366 15.5 6C15.5 6.96634 15.1618 7.78113 14.4714 8.47145C13.7811 9.16176 12.9663 9.5 12 9.5ZM12 8.5C12.6838 8.5 13.2816 8.25048 13.7666 7.76555C14.251 7.28111 14.5 6.68354 14.5 6C14.5 5.31646 14.251 4.71889 13.7666 4.23445C13.2816 3.74952 12.6838 3.5 12 3.5C11.3163 3.5 10.7188 3.74944 10.2344 4.23445C9.74944 4.71877 9.5 5.31633 9.5 6C9.5 6.68367 9.74944 7.28123 10.2344 7.76555C10.7188 8.25056 11.3163 8.5 12 8.5Z" stroke="black" stroke-opacity="0.2"/>
</svg>
