<svg width="110" height="56" viewBox="0 0 110 56" fill="none" xmlns="http://www.w3.org/2000/svg">
<g opacity="0.25">
<path d="M102.718 40.1304C99.0687 38.4032 95.5714 38.3313 93.0624 39.9504C91.6938 40.814 91.3517 40.922 91.0856 40.4902C88.9188 36.856 85.6495 34.877 83.2926 35.8125C82.3422 36.1723 81.734 38.6187 80.8216 41.6412C78.8068 40.2379 73.8269 37.8275 71.3179 37.8995C67.8205 38.0074 65.6157 41.2814 64.1331 42.6127L63.3348 40.9216C60.2176 34.2649 55.1996 34.9486 50.7519 42.6127L48.7371 46.1034L47.6727 44.0164C43.491 35.6326 38.5871 35.9921 33.3031 45.0595L31.2883 48.4778C28.095 43.6562 24.1415 35.5966 18.2492 36.5322C15.4741 36.9639 13.3454 40.094 10.2282 47.1105C5.55235 57.6892 13.6494 55.3504 15.0179 52.076C19.0095 42.4688 20.5681 40.886 22.6209 44.1963C25.3199 48.5501 29.1214 53.9474 29.7677 54.4512C31.7825 55.9624 34.9377 55.8185 35.5459 54.2713C39.6135 44.0524 40.868 44.2319 41.4002 43.3324C43.377 48.082 44.4414 50.781 45.3918 52.4002C46.8363 54.847 50.7899 57.3657 53.755 50.853C57.0623 43.5846 58.2788 41.3537 58.5449 42.1094C60.9779 50.0254 65.4256 51.3567 69.2651 45.2758C71.3559 41.9654 72.7244 40.9216 73.1426 40.4538C80.8596 46.3908 79.8712 45.7792 80.7456 46.139C83.7487 47.3624 86.7899 45.4197 86.8279 41.6056C86.8279 41.2818 87.2841 41.6416 87.8543 42.3972C90.0972 45.3837 93.3665 45.8871 96.1796 43.6922C98.5745 41.8211 99.3728 41.5333 101.084 42.001C105.265 43.0445 106.292 41.8215 102.718 40.1304Z" fill="#F5F6FB"/>
<path d="M101.236 14.7267L99.753 14.763C97.0539 10.1214 95.7614 7.67461 94.3549 6.41524C92.4922 4.75996 87.7023 3.2485 86.4478 11.0565C85.5354 16.8137 85.2313 17.6416 84.319 17.3178C82.9124 16.778 79.1109 16.4542 77.5143 16.7421C75.9177 17.0299 75.8417 16.9939 75.0814 15.8425C73.2566 12.9999 68.5428 12.784 64.2851 15.3388C63.2587 15.9505 62.4224 16.3819 62.3844 16.3459C62.3464 16.2739 61.7762 15.1225 61.1299 13.8272C59.2672 10.0131 57.7466 10.1933 53.4509 10.1933V6.99059C53.4509 -2.14872 46.8363 -1.21311 42.6927 3.46454C40.6779 5.76738 38.245 9.40174 35.3558 14.4032L32.7328 18.901C29.3875 18.901 29.4255 19.0809 27.5248 17.2818C25.624 15.4827 24.3696 15.2308 21.5184 16.2023C20.6441 16.5262 19.8458 16.7421 19.8078 16.7421C18.5153 16.7421 22.1267 4.22016 13.8774 4.18418C11.0263 4.18418 9.39167 6.0194 3.08121 16.2023C-4.67382 28.724 4.52581 26.3852 5.59023 24.0464C6.5406 21.9594 11.2924 14.7267 12.5849 12.7477C12.813 14.3309 13.0791 16.2383 13.1171 18.937C13.1931 24.1184 18.6673 24.766 21.9746 20.0164C23.9894 17.1379 26.9546 18.037 26.3843 21.3834C26.2323 22.175 27.0686 23.2188 27.8289 23.2188C29.3495 23.2188 32.7708 25.2698 35.0137 24.5142C36.6864 23.9744 38.0169 22.0314 40.5259 17.7495C41.2862 16.4182 42.8068 13.9355 44.0993 11.8125C44.7455 10.7331 46.4942 11.1645 46.4942 12.3879C47.2545 15.1945 44.5554 19.7286 50.2577 19.7286C51.7783 19.7286 53.1848 19.0449 54.2112 17.7495C55.6558 15.8785 55.4657 15.8065 57.2524 18.5771C59.3432 21.8515 62.6885 22.139 66.9082 19.3324C69.5312 17.6053 69.7593 17.4973 70.1394 18.145C71.2419 20.124 74.8152 20.9876 78.4647 20.124C80.7456 19.5843 81.0117 19.5843 83.3306 20.3039C89.0708 22.103 91.3137 20.772 92.036 15.2308L92.3021 13.1798L93.2525 14.5112C95.4953 17.6776 97.7382 19.2964 100.171 19.4044C100.475 19.4044 109.371 18.5771 109.865 17.8575C110.891 16.3822 105.873 14.5828 101.236 14.7267Z" fill="#F5F6FB"/>
</g>
</svg>
