<svg width="24" height="24" viewBox="0 0 24 24" fill="none" xmlns="http://www.w3.org/2000/svg">
<path d="M14.4445 1.6106L13.5528 1.21774L5.20796 12.3804L4.69224 13.0702C4.54291 12.7453 4.57953 12.3651 4.79101 12.073L13.1931 0.953038L13.199 0.945196L13.2046 0.937127C13.2197 0.91548 13.2358 0.894561 13.2528 0.874444L13.2529 0.87432C13.3138 0.802514 13.3844 0.739589 13.4627 0.687384L13.4642 0.686336C13.6343 0.572026 13.7269 0.53207 13.8725 0.520084C13.899 0.51814 13.9265 0.517137 13.9544 0.517137H13.9734C13.9796 0.517182 13.9835 0.517265 13.9868 0.517405V0.517427L13.9915 0.517577C14.5323 0.535136 14.9623 0.977419 14.9623 1.51709V1.51763C14.9624 1.59594 14.953 1.67396 14.9342 1.74998L14.9309 1.763L14.9284 1.77618L13.5818 8.82806L13.4686 9.42079L14.0721 9.42184L18.399 9.42933C18.3995 9.42933 18.3999 9.42933 18.4003 9.42934C18.7598 9.43239 19.0882 9.62558 19.2651 9.93232L18.3935 9.92939L12.8647 9.91079L14.4445 1.6106ZM5.60121 13.6562C5.25049 13.6536 4.92924 13.4701 4.74913 13.1767L5.60668 13.1797L11.1454 13.199L9.55387 22.3981L10.4576 22.768L18.8029 10.714L19.2993 9.99693C19.4589 10.3264 19.4244 10.7176 19.207 11.0155L19.2069 11.0155L19.201 11.024L10.7888 23.0734C10.5794 23.3584 10.335 23.483 10.0462 23.483H10.0458C9.90919 23.4831 9.774 23.4553 9.64848 23.4014L9.64772 23.4011C9.21555 23.2162 8.97148 22.7581 9.05747 22.3L9.05754 22.3L9.059 22.2914L10.4203 14.2713L10.5186 13.6919L9.93094 13.6877L5.60121 13.6562Z" stroke="#5EC737"/>
<path d="M14.4445 1.6106L13.5528 1.21774L5.20796 12.3804L4.69224 13.0702C4.54291 12.7453 4.57953 12.3651 4.79101 12.073L13.1931 0.953038L13.199 0.945196L13.2046 0.937127C13.2197 0.91548 13.2358 0.894561 13.2528 0.874444L13.2529 0.87432C13.3138 0.802514 13.3844 0.739589 13.4627 0.687384L13.4642 0.686336C13.6343 0.572026 13.7269 0.53207 13.8725 0.520084C13.899 0.51814 13.9265 0.517137 13.9544 0.517137H13.9734C13.9796 0.517182 13.9835 0.517265 13.9868 0.517405V0.517427L13.9915 0.517577C14.5323 0.535136 14.9623 0.977419 14.9623 1.51709V1.51763C14.9624 1.59594 14.953 1.67396 14.9342 1.74998L14.9309 1.763L14.9284 1.77618L13.5818 8.82806L13.4686 9.42079L14.0721 9.42184L18.399 9.42933C18.3995 9.42933 18.3999 9.42933 18.4003 9.42934C18.7598 9.43239 19.0882 9.62558 19.2651 9.93232L18.3935 9.92939L12.8647 9.91079L14.4445 1.6106ZM5.60121 13.6562C5.25049 13.6536 4.92924 13.4701 4.74913 13.1767L5.60668 13.1797L11.1454 13.199L9.55387 22.3981L10.4576 22.768L18.8029 10.714L19.2993 9.99693C19.4589 10.3264 19.4244 10.7176 19.207 11.0155L19.2069 11.0155L19.201 11.024L10.7888 23.0734C10.5794 23.3584 10.335 23.483 10.0462 23.483H10.0458C9.90919 23.4831 9.774 23.4553 9.64848 23.4014L9.64772 23.4011C9.21555 23.2162 8.97148 22.7581 9.05747 22.3L9.05754 22.3L9.059 22.2914L10.4203 14.2713L10.5186 13.6919L9.93094 13.6877L5.60121 13.6562Z" stroke="black" stroke-opacity="0.2"/>
</svg>
