<svg width="45" height="30" viewBox="0 0 45 30" fill="none" xmlns="http://www.w3.org/2000/svg">
<path opacity="0.3" fill-rule="evenodd" clip-rule="evenodd" d="M25.0898 29.9999C21.7287 30.032 16.288 24.1254 14.4362 22.4941C11.7365 20.1158 11.7566 20.1219 8.97571 17.7686C6.91672 16.0262 4.5002 14.2279 3.05829 12.2516C2.66021 11.7059 1.88297 10.2811 1.68798 9.92992C0.598497 7.96787 -0.665835 5.67302 0.407814 3.59914C1.13361 2.19727 3.93105 1.92494 6.00852 1.94341C11.0021 1.98785 15.2522 3.93351 18.0633 6.32628C19.6032 7.63693 20.5974 9.10106 21.7437 10.5468C22.0548 10.9391 22.385 11.3256 22.7039 11.7155C22.8473 11.8909 22.9793 12.0699 23.1306 12.2428C23.2287 12.355 23.3226 12.4701 23.4513 12.5701C23.504 12.611 23.6133 12.6989 23.664 12.6571C23.893 12.4681 23.9928 12.2318 24.1278 12.0119C24.6328 11.189 25.161 9.97778 25.5842 9.21568C25.9207 8.6099 26.5693 7.68977 27.0822 7.14068C27.7563 6.419 28.4389 5.69812 29.2117 5.01407C29.9853 4.32928 30.8502 3.68378 31.7143 3.04036C32.1223 2.73656 32.5724 2.45417 33.0249 2.17473C34.9887 0.962097 37.8888 -0.428694 40.8928 0.125374C44.382 0.768896 45.1147 3.48217 44.9863 5.38468C44.9424 6.03549 44.8781 6.68731 44.7333 7.3327C43.3554 13.4745 38.1694 18.9991 32.7318 24.1174C31.972 24.8325 27.1997 29.9793 25.0898 29.9999Z" fill="white"/>
</svg>
