<svg width="16" height="16" viewBox="0 0 16 16" fill="none" xmlns="http://www.w3.org/2000/svg">
<path d="M1.24989 8.00008C1.25154 6.74081 1.75252 5.53359 2.64296 4.64315C3.5334 3.75271 4.74062 3.25173 5.99989 3.25008H12.1874L11.9686 3.03133C11.8989 2.96157 11.8435 2.87874 11.8058 2.78759C11.768 2.69644 11.7486 2.59874 11.7486 2.50008C11.7486 2.40142 11.768 2.30372 11.8058 2.21257C11.8435 2.12142 11.8989 2.03859 11.9686 1.96883C12.0384 1.89907 12.1212 1.84373 12.2124 1.80597C12.3035 1.76821 12.4012 1.74878 12.4999 1.74878C12.5985 1.74878 12.6962 1.76821 12.7874 1.80597C12.8786 1.84373 12.9614 1.89907 13.0311 1.96883L14.5311 3.46883C14.6011 3.53851 14.6565 3.6213 14.6944 3.71247C14.7322 3.80363 14.7517 3.90137 14.7517 4.00008C14.7517 4.09879 14.7322 4.19653 14.6944 4.28769C14.6565 4.37886 14.6011 4.46165 14.5311 4.53133L13.0311 6.03133C12.8896 6.17103 12.6987 6.24935 12.4999 6.24935C12.301 6.24935 12.1102 6.17103 11.9686 6.03133C11.8987 5.96165 11.8432 5.87886 11.8054 5.78769C11.7675 5.69653 11.748 5.59879 11.748 5.50008C11.748 5.40137 11.7675 5.30363 11.8054 5.21247C11.8432 5.1213 11.8987 5.03851 11.9686 4.96883L12.1874 4.75008H5.99989C5.13793 4.75008 4.31128 5.09249 3.70179 5.70198C3.0923 6.31148 2.74989 7.13813 2.74989 8.00008C2.74989 8.19899 2.67087 8.38976 2.53022 8.53041C2.38957 8.67106 2.1988 8.75008 1.99989 8.75008C1.80098 8.75008 1.61021 8.67106 1.46956 8.53041C1.32891 8.38976 1.24989 8.19899 1.24989 8.00008ZM13.9999 7.25008C13.801 7.25008 13.6102 7.3291 13.4696 7.46975C13.3289 7.6104 13.2499 7.80117 13.2499 8.00008C13.2499 8.42688 13.1658 8.84949 13.0025 9.2438C12.8392 9.63811 12.5998 9.99639 12.298 10.2982C11.9962 10.6 11.6379 10.8394 11.2436 11.0027C10.8493 11.166 10.4267 11.2501 9.99989 11.2501H3.81239L4.03114 11.0313C4.17203 10.8904 4.25119 10.6993 4.25119 10.5001C4.25119 10.3008 4.17203 10.1097 4.03114 9.96883C3.89024 9.82794 3.69915 9.74878 3.49989 9.74878C3.30063 9.74878 3.10953 9.82794 2.96864 9.96883L1.46864 11.4688C1.39872 11.5385 1.34324 11.6213 1.30539 11.7125C1.26753 11.8036 1.24805 11.9014 1.24805 12.0001C1.24805 12.0988 1.26753 12.1965 1.30539 12.2877C1.34324 12.3789 1.39872 12.4617 1.46864 12.5313L2.96864 14.0313C3.11017 14.171 3.30103 14.2494 3.49989 14.2494C3.69875 14.2494 3.88961 14.171 4.03114 14.0313C4.10106 13.9617 4.15654 13.8789 4.19439 13.7877C4.23224 13.6965 4.25173 13.5988 4.25173 13.5001C4.25173 13.4014 4.23224 13.3036 4.19439 13.2125C4.15654 13.1213 4.10106 13.0385 4.03114 12.9688L3.81239 12.7501H9.99989C11.2592 12.7484 12.4664 12.2475 13.3568 11.357C14.2473 10.4666 14.7482 9.25935 14.7499 8.00008C14.7499 7.80117 14.6709 7.6104 14.5302 7.46975C14.3896 7.3291 14.1988 7.25008 13.9999 7.25008Z" fill="white"/>
</svg>
