<svg width="48" height="38" viewBox="0 0 48 38" fill="none" xmlns="http://www.w3.org/2000/svg">
<path fill-rule="evenodd" clip-rule="evenodd" d="M26.0656 1.0732C24.4172 1.75903 22.0302 2.96723 20.7407 3.73444C13.6973 7.86037 5.70008 8.12218 3.5181 4.34327C2.18188 2.0146 0.190496 1.54033 0.0151492 3.48751C-0.274173 6.70035 3.6272 9.45631 9.19614 9.95781L13.0298 10.303L10.7052 13.5289C4.06218 22.6964 2.72659 31.6549 7.4544 35.1723C11.0733 37.9028 16.7202 37.0869 28.0744 32.0732C31.2948 30.6456 31.5458 30.5696 31.18 31.469C28.588 37.6643 40.7681 39.7427 46.8447 34.1556C49.3728 31.8314 47.4656 30.8745 43.8873 32.6624C37.3264 35.9485 35.1453 32.6118 40.0647 26.7733C41.9296 24.5857 40.5864 20.9799 29.1383 26.1324C13.9189 32.9572 11.423 33.5672 11.2465 30.5578C10.8118 21.8325 19.4926 9.46188 29.3503 4.80419C37.9359 0.718997 31.987 -1.43616 26.0656 1.0732Z" fill="#F5F6FB"/>
</svg>
