<svg width="34" height="34" viewBox="0 0 34 34" fill="none" xmlns="http://www.w3.org/2000/svg">
<path d="M17 12.7498C14.7333 12.7498 12.5375 13.104 10.4833 13.7698V18.1615C10.4833 18.7282 10.1575 19.2098 9.69 19.4365C8.30167 20.1307 7.04083 21.0232 5.9075 22.0573C5.66667 22.3123 5.3125 22.4682 4.95833 22.4682C4.53333 22.4682 4.17917 22.2982 3.92417 22.0432L0.410833 18.5298C0.147807 18.2668 2.68362e-05 17.9101 0 17.5382C0 17.1415 0.155833 16.7873 0.410833 16.5323C4.73167 12.424 10.5683 9.9165 17 9.9165C23.4317 9.9165 29.2683 12.424 33.5892 16.5323C33.8442 16.7873 34 17.1415 34 17.5382C34 17.9207 33.8442 18.2748 33.5892 18.5298L30.0758 22.0432C29.8208 22.2982 29.4667 22.4682 29.0417 22.4682C28.6792 22.4622 28.3335 22.3148 28.0783 22.0573C26.9592 21.0232 25.6983 20.1307 24.31 19.4365C24.0711 19.3202 23.87 19.1389 23.7296 18.9133C23.5893 18.6877 23.5155 18.4272 23.5167 18.1615V13.7698C21.4625 13.104 19.2667 12.7498 17 12.7498Z" fill="#F8F8F8"/>
</svg>
