<svg width="24" height="24" viewBox="0 0 24 24" fill="none" xmlns="http://www.w3.org/2000/svg">
<g opacity="0.7">
<path d="M12.142 1.04591L9.80578 3.38231H6.20062L5.14594 2.32762L3.68559 3.78656L5.14603 5.24704L6.13341 4.25831H9.87309L11.3965 5.78174V15.5976H11.3863C11.3863 18.2533 10.3232 20.7816 9.19786 21.6006C7.94667 21.9498 6.96277 22.514 6.43505 23.1899H17.8506C17.3314 22.5224 16.3584 21.9651 15.1245 21.6152C14.0874 20.8554 13.0153 18.5396 12.8892 16.0751V5.78029L14.4111 4.25835H18.0849L19.0737 5.24713L20.5327 3.78656L19.0737 2.32762L18.0176 3.38231H14.4786L12.142 1.04591ZM6.5025 6.65184C5.96672 6.67284 5.42592 6.97021 5.08453 7.61137C4.21191 6.10799 1.90669 6.46349 1.96584 8.3159C2.02134 10.0535 4.37578 10.6338 5.08444 12.479C5.83303 10.6334 8.25244 10.1643 8.19431 8.31585C8.16117 7.25896 7.33814 6.61907 6.50245 6.65179L6.5025 6.65184ZM20.8373 8.84465C20.2515 8.84006 19.6977 9.02793 19.1616 9.35746C18.019 10.0596 18.0951 11.7385 15.7647 12.3413C18.3904 13.8584 20.0057 9.76082 22.7124 9.48932C22.0427 9.04766 21.4233 8.84948 20.8374 8.84479L20.8373 8.84465ZM15.98 10.4443C14.5442 10.4271 14.2751 11.5001 15.4453 12.1758C15.1147 11.5605 15.3175 10.8991 16.1236 10.4502C16.0758 10.4471 16.0279 10.4452 15.98 10.4443ZM0.878906 13.2994C0.878906 14.3127 2.8657 15.1348 5.31591 15.1348C7.76606 15.1348 9.75145 14.3127 9.75145 13.2993H0.878906V13.2994ZM14.1651 13.2994C14.1651 14.3127 16.1519 15.1348 18.6021 15.1348C21.0522 15.1348 23.0376 14.3127 23.0376 13.2993H14.165L14.1651 13.2994Z" fill="#2B3443" fill-opacity="0.8"/>
</g>
</svg>
