<svg width="30" height="30" viewBox="0 0 30 30" fill="none" xmlns="http://www.w3.org/2000/svg">
<path d="M15.0312 27.5625C14.6979 27.5625 14.3804 27.5 14.0787 27.375C13.7762 27.25 13.5 27.0729 13.25 26.8438L3.21875 16.8125C2.98958 16.5625 2.8125 16.2862 2.6875 15.9837C2.5625 15.6821 2.5 15.3646 2.5 15.0312C2.5 14.6979 2.5625 14.375 2.6875 14.0625C2.8125 13.75 2.98958 13.4792 3.21875 13.25L13.25 3.21875C13.5 2.96875 13.7762 2.78625 14.0787 2.67125C14.3804 2.55708 14.6979 2.5 15.0312 2.5C15.3646 2.5 15.6875 2.55708 16 2.67125C16.3125 2.78625 16.5833 2.96875 16.8125 3.21875L26.8438 13.25C27.0938 13.4792 27.2763 13.75 27.3913 14.0625C27.5054 14.375 27.5625 14.6979 27.5625 15.0312C27.5625 15.3646 27.5054 15.6821 27.3913 15.9837C27.2763 16.2862 27.0938 16.5625 26.8438 16.8125L16.8125 26.8438C16.5833 27.0729 16.3125 27.25 16 27.375C15.6875 27.5 15.3646 27.5625 15.0312 27.5625ZM15.0312 25.0625L25.0625 15.0312L15.0312 5L5 15.0312L15.0312 25.0625ZM13.7812 16.2812H16.2812V8.78125H13.7812V16.2812ZM15.0312 20.0312C15.3854 20.0312 15.6825 19.9112 15.9225 19.6712C16.1617 19.4321 16.2812 19.1354 16.2812 18.7812C16.2812 18.4271 16.1617 18.13 15.9225 17.89C15.6825 17.6508 15.3854 17.5312 15.0312 17.5312C14.6771 17.5312 14.3804 17.6508 14.1412 17.89C13.9012 18.13 13.7812 18.4271 13.7812 18.7812C13.7812 19.1354 13.9012 19.4321 14.1412 19.6712C14.3804 19.9112 14.6771 20.0312 15.0312 20.0312Z" fill="#EA4653"/>
</svg>
