<svg width="70" height="27" viewBox="0 0 70 27" fill="none" xmlns="http://www.w3.org/2000/svg">
<path d="M4.295 27L5.27 22.5632L2 19.5789L6.32 19.1842L8 15L9.68 19.1842L14 19.5789L10.73 22.5632L11.705 27L8 24.6474L4.295 27Z" fill="#FFC700"/>
<path d="M18.295 27L19.27 22.5632L16 19.5789L20.32 19.1842L22 15L23.68 19.1842L28 19.5789L24.73 22.5632L25.705 27L22 24.6474L18.295 27Z" fill="#FFC700"/>
<path d="M32.295 27L33.27 22.5632L30 19.5789L34.32 19.1842L36 15L37.68 19.1842L42 19.5789L38.73 22.5632L39.705 27L36 24.6474L32.295 27Z" fill="#FFC700"/>
<path d="M46.295 27L47.27 22.5632L44 19.5789L48.32 19.1842L50 15L51.68 19.1842L56 19.5789L52.73 22.5632L53.705 27L50 24.6474L46.295 27Z" fill="#FFC700"/>
<path d="M60.295 27L61.27 22.5632L58 19.5789L62.32 19.1842L64 15L65.68 19.1842L70 19.5789L66.73 22.5632L67.705 27L64 24.6474L60.295 27Z" fill="#2B3443" fill-opacity="0.2"/>
</svg>
