<svg width="22" height="19" viewBox="0 0 22 19" fill="none" xmlns="http://www.w3.org/2000/svg">
<path opacity="0.9" d="M19.7769 2.18236C19.2698 1.68791 18.6677 1.29568 18.0049 1.02808C17.3422 0.760474 16.6319 0.622737 15.9145 0.622737C15.1972 0.622737 14.4869 0.760474 13.8242 1.02808C13.1614 1.29568 12.5593 1.68791 12.0522 2.18236L10.9997 3.20803L9.94727 2.18236C8.92291 1.18408 7.53358 0.623255 6.08492 0.623255C4.63626 0.623255 3.24693 1.18408 2.22257 2.18236C1.19822 3.18064 0.622737 4.53459 0.622737 5.94637C0.622737 7.35815 1.19822 8.71211 2.22257 9.71039L3.27504 10.7361L10.9997 18.2641L18.7244 10.7361L19.7769 9.71039C20.2843 9.21617 20.6867 8.62938 20.9613 7.98354C21.2359 7.3377 21.3773 6.64546 21.3773 5.94637C21.3773 5.24729 21.2359 4.55505 20.9613 3.90921C20.6867 3.26336 20.2843 2.67657 19.7769 2.18236V2.18236Z" stroke="#2B3443" stroke-opacity="0.7" stroke-width="1.2" stroke-linecap="round" stroke-linejoin="round"/>
</svg>
