<svg width="24" height="24" viewBox="0 0 24 24" fill="none" xmlns="http://www.w3.org/2000/svg">
<path d="M18.4524 9.13971L18.438 9.0298C18.202 7.22397 17.3172 5.56566 15.9485 4.36419C14.5799 3.16272 12.821 2.50013 10.9998 2.5L18.4524 9.13971ZM18.4524 9.13971L18.5119 9.23326M18.4524 9.13971L18.5119 9.23326M18.5119 9.23326L20.7618 12.7721C20.7618 12.7722 20.7619 12.7723 20.7619 12.7724C20.7617 12.7725 20.7615 12.7726 20.7613 12.7727C20.7611 12.7728 20.7609 12.7728 20.7607 12.7729L18.8032 13.6103L18.4998 13.7401M18.5119 9.23326L18.4998 13.7401M18.4998 13.7401V14.07M18.4998 13.7401V14.07M18.4998 14.07V17C18.4998 17.3978 18.3418 17.7794 18.0605 18.0607C17.7792 18.342 17.3976 18.5 16.9998 18.5H15.0008H14.501M18.4998 14.07L14.501 18.5M14.501 18.5L14.5008 18.9998M14.501 18.5L14.5008 18.9998M14.5008 18.9998L14.5 21.5M14.5008 18.9998L14.5 21.5M5.92576 14.0628L5.92549 14.0625C5.16011 13.1065 4.68035 11.9538 4.54148 10.7371C4.40262 9.52034 4.61029 8.28914 5.14059 7.18529C5.67089 6.08145 6.50224 5.14986 7.53886 4.49786C8.57548 3.84585 9.7752 3.49995 10.9998 3.5L5.92576 14.0628ZM5.92576 14.0628C6.95692 15.3485 7.49981 16.7934 7.49981 18.306V20V20.5M5.92576 14.0628L7.49981 20.5M7.49981 20.5H7.99981M7.49981 20.5H7.99981M7.99981 20.5H12.9998H13.4995M7.99981 20.5H13.4995M13.4995 20.5L13.4998 20.0003M13.4995 20.5L13.4998 20.0003M13.4998 20.0003L13.5015 17.5H16.9998H17.4998V17V13.0818L18.7467 12.5476L19.2875 12.3159L18.9717 11.8196L17.4885 9.48857M13.4998 20.0003L17.4885 9.48857M17.4885 9.48857L17.4457 9.15705L17.4456 9.15601C17.2405 7.5916 16.4735 6.15516 15.2875 5.11451C14.1016 4.07386 12.5776 3.50003 10.9998 3.5L17.4885 9.48857ZM14.5 21.5H6.49981V18.306C6.49981 16.9952 6.01356 15.7707 5.14607 14.6884C4.26272 13.5855 3.70892 12.2554 3.5485 10.8515C3.38807 9.44753 3.62753 8.02682 4.2393 6.75303C4.85106 5.47924 5.81024 4.40419 7.00632 3.65173C8.2024 2.89929 9.58671 2.50004 10.9998 2.5L14.5 21.5ZM10.1101 8.11028L10.11 8.11034L10.1163 8.11655L10.6463 8.64655L10.9998 9.00011L11.3534 8.64655L11.8834 8.11655L11.8834 8.11661L11.8895 8.11028C12.0048 7.99087 12.1427 7.89562 12.2952 7.83008C12.4477 7.76453 12.6117 7.73002 12.7777 7.72854C12.9437 7.72707 13.1083 7.75866 13.2619 7.82148C13.4155 7.8843 13.5551 7.97709 13.6725 8.09443C13.7899 8.21177 13.8827 8.35132 13.9456 8.50493C14.0085 8.65853 14.0402 8.82313 14.0388 8.9891C14.0374 9.15507 14.0029 9.31911 13.9374 9.47163C13.8719 9.62414 13.7767 9.76209 13.6574 9.87743L13.6573 9.87737L13.6512 9.88351L10.9998 12.5358L8.34842 9.88351L8.34847 9.88345L8.34224 9.87743C8.22287 9.76209 8.12767 9.62414 8.06219 9.47163C7.99671 9.31911 7.96226 9.15508 7.96085 8.9891C7.95944 8.82313 7.99111 8.65854 8.05399 8.50493C8.11687 8.35132 8.20971 8.21177 8.3271 8.09443C8.44449 7.97709 8.58408 7.8843 8.73771 7.82148C8.89134 7.75866 9.05595 7.72707 9.22192 7.72854C9.3879 7.73002 9.55191 7.76453 9.70441 7.83008C9.8569 7.89562 9.99481 7.99087 10.1101 8.11028Z" stroke="#5EC737"/>
<path d="M18.4524 9.13971L18.438 9.0298C18.202 7.22397 17.3172 5.56566 15.9485 4.36419C14.5799 3.16272 12.821 2.50013 10.9998 2.5L18.4524 9.13971ZM18.4524 9.13971L18.5119 9.23326M18.4524 9.13971L18.5119 9.23326M18.5119 9.23326L20.7618 12.7721C20.7618 12.7722 20.7619 12.7723 20.7619 12.7724C20.7617 12.7725 20.7615 12.7726 20.7613 12.7727C20.7611 12.7728 20.7609 12.7728 20.7607 12.7729L18.8032 13.6103L18.4998 13.7401M18.5119 9.23326L18.4998 13.7401M18.4998 13.7401V14.07M18.4998 13.7401V14.07M18.4998 14.07V17C18.4998 17.3978 18.3418 17.7794 18.0605 18.0607C17.7792 18.342 17.3976 18.5 16.9998 18.5H15.0008H14.501M18.4998 14.07L14.501 18.5M14.501 18.5L14.5008 18.9998M14.501 18.5L14.5008 18.9998M14.5008 18.9998L14.5 21.5M14.5008 18.9998L14.5 21.5M5.92576 14.0628L5.92549 14.0625C5.16011 13.1065 4.68035 11.9538 4.54148 10.7371C4.40262 9.52034 4.61029 8.28914 5.14059 7.18529C5.67089 6.08145 6.50224 5.14986 7.53886 4.49786C8.57548 3.84585 9.7752 3.49995 10.9998 3.5L5.92576 14.0628ZM5.92576 14.0628C6.95692 15.3485 7.49981 16.7934 7.49981 18.306V20V20.5M5.92576 14.0628L7.49981 20.5M7.49981 20.5H7.99981M7.49981 20.5H7.99981M7.99981 20.5H12.9998H13.4995M7.99981 20.5H13.4995M13.4995 20.5L13.4998 20.0003M13.4995 20.5L13.4998 20.0003M13.4998 20.0003L13.5015 17.5H16.9998H17.4998V17V13.0818L18.7467 12.5476L19.2875 12.3159L18.9717 11.8196L17.4885 9.48857M13.4998 20.0003L17.4885 9.48857M17.4885 9.48857L17.4457 9.15705L17.4456 9.15601C17.2405 7.5916 16.4735 6.15516 15.2875 5.11451C14.1016 4.07386 12.5776 3.50003 10.9998 3.5L17.4885 9.48857ZM14.5 21.5H6.49981V18.306C6.49981 16.9952 6.01356 15.7707 5.14607 14.6884C4.26272 13.5855 3.70892 12.2554 3.5485 10.8515C3.38807 9.44753 3.62753 8.02682 4.2393 6.75303C4.85106 5.47924 5.81024 4.40419 7.00632 3.65173C8.2024 2.89929 9.58671 2.50004 10.9998 2.5L14.5 21.5ZM10.1101 8.11028L10.11 8.11034L10.1163 8.11655L10.6463 8.64655L10.9998 9.00011L11.3534 8.64655L11.8834 8.11655L11.8834 8.11661L11.8895 8.11028C12.0048 7.99087 12.1427 7.89562 12.2952 7.83008C12.4477 7.76453 12.6117 7.73002 12.7777 7.72854C12.9437 7.72707 13.1083 7.75866 13.2619 7.82148C13.4155 7.8843 13.5551 7.97709 13.6725 8.09443C13.7899 8.21177 13.8827 8.35132 13.9456 8.50493C14.0085 8.65853 14.0402 8.82313 14.0388 8.9891C14.0374 9.15507 14.0029 9.31911 13.9374 9.47163C13.8719 9.62414 13.7767 9.76209 13.6574 9.87743L13.6573 9.87737L13.6512 9.88351L10.9998 12.5358L8.34842 9.88351L8.34847 9.88345L8.34224 9.87743C8.22287 9.76209 8.12767 9.62414 8.06219 9.47163C7.99671 9.31911 7.96226 9.15508 7.96085 8.9891C7.95944 8.82313 7.99111 8.65854 8.05399 8.50493C8.11687 8.35132 8.20971 8.21177 8.3271 8.09443C8.44449 7.97709 8.58408 7.8843 8.73771 7.82148C8.89134 7.75866 9.05595 7.72707 9.22192 7.72854C9.3879 7.73002 9.55191 7.76453 9.70441 7.83008C9.8569 7.89562 9.99481 7.99087 10.1101 8.11028Z" stroke="black" stroke-opacity="0.2"/>
</svg>
