<svg width="34" height="34" viewBox="0 0 34 34" fill="none" xmlns="http://www.w3.org/2000/svg">
<path d="M2.8335 8.5V25.5M31.1668 20.5417V25.5M31.1668 20.5417H2.8335M31.1668 20.5417H15.5835V11.3333H29.0418C29.6054 11.3333 30.1459 11.5572 30.5444 11.9557C30.9429 12.3542 31.1668 12.8947 31.1668 13.4583V20.5417Z" stroke="#5EC737" stroke-width="2" stroke-linecap="round" stroke-linejoin="round"/>
<path d="M2.8335 8.5V25.5M31.1668 20.5417V25.5M31.1668 20.5417H2.8335M31.1668 20.5417H15.5835V11.3333H29.0418C29.6054 11.3333 30.1459 11.5572 30.5444 11.9557C30.9429 12.3542 31.1668 12.8947 31.1668 13.4583V20.5417Z" stroke="black" stroke-opacity="0.2" stroke-width="2" stroke-linecap="round" stroke-linejoin="round"/>
<path d="M9.2085 16.292C10.3821 16.292 11.3335 15.3406 11.3335 14.167C11.3335 12.9934 10.3821 12.042 9.2085 12.042C8.03489 12.042 7.0835 12.9934 7.0835 14.167C7.0835 15.3406 8.03489 16.292 9.2085 16.292Z" stroke="#5EC737" stroke-width="2"/>
<path d="M9.2085 16.292C10.3821 16.292 11.3335 15.3406 11.3335 14.167C11.3335 12.9934 10.3821 12.042 9.2085 12.042C8.03489 12.042 7.0835 12.9934 7.0835 14.167C7.0835 15.3406 8.03489 16.292 9.2085 16.292Z" stroke="black" stroke-opacity="0.2" stroke-width="2"/>
</svg>
