<svg width="295" height="84" viewBox="0 0 295 84" fill="none" xmlns="http://www.w3.org/2000/svg">
<path d="M288.322 18.9885C277.12 11.7784 266.385 11.4779 258.683 18.2374C254.482 21.8425 253.432 22.2931 252.615 20.4906C245.964 5.31928 235.929 -2.94233 228.694 0.96316C225.777 2.46527 223.91 12.6781 221.109 25.2958C214.925 19.4376 199.638 9.37496 191.937 9.67538C181.201 10.126 174.433 23.7937 169.883 29.3515L167.432 22.2916C157.864 -5.49743 142.461 -2.64342 128.808 29.3515L122.623 43.9235L119.356 35.2113C106.52 0.212088 91.4673 1.7127 75.2474 39.5659L69.0629 53.8359C59.261 33.7076 47.1253 0.0618936 29.0385 3.96738C20.52 5.76991 13.9859 18.8367 4.41736 48.1279C-9.93543 92.2899 14.9189 82.5262 19.1198 68.857C31.3723 28.7507 36.1565 22.1429 42.4577 35.9623C50.7427 54.1378 62.4116 76.6695 64.3953 78.7724C70.5799 85.0813 80.2651 84.4805 82.1321 78.0214C94.6179 35.3615 98.4686 36.111 100.102 32.3557C106.17 52.1836 109.437 63.4509 112.355 70.2104C116.789 80.4248 128.925 90.9395 138.026 63.7513C148.178 33.4087 151.912 24.0957 152.729 27.2501C160.197 60.2965 173.85 65.8543 185.636 40.4686C192.054 26.6492 196.254 22.2916 197.538 20.3389C221.226 45.1237 218.192 42.5701 220.876 44.0722C230.094 49.1794 239.429 41.0695 239.546 25.1471C239.546 23.7952 240.946 25.2973 242.697 28.4518C249.581 40.9193 259.617 43.0207 268.252 33.8578C275.603 26.0469 278.054 24.8452 283.305 26.7979C296.14 31.1541 299.291 26.0484 288.322 18.9885Z" fill="#F5F6FB" fill-opacity="0.2"/>
</svg>
