<svg width="75" height="79" viewBox="0 0 75 79" fill="none" xmlns="http://www.w3.org/2000/svg">
<g opacity="0.4">
<path d="M21.5577 33.0001C18.5941 36.2026 18.7375 39.214 21.9401 40.0744C24.9037 40.887 30.3528 36.0592 28.6798 34.0516C26.9112 31.9485 23.0395 31.3749 21.5577 33.0001Z" fill="#5EC737" fill-opacity="0.5"/>
<path d="M20.6973 69.0887C18.7375 69.4233 16.0129 75.6377 17.1601 77.0239C19.4545 79.7963 22.6571 79.0788 25.2382 75.2071C27.9628 71.0007 25.9074 68.1805 20.6973 69.0887Z" fill="#5EC737" fill-opacity="0.5"/>
<path d="M11.0894 14.7889C8.98624 15.6015 7.88685 20.1903 9.41644 21.5765C11.7586 23.6796 13.8618 23.1534 16.3474 19.8552C18.8807 16.557 15.3436 13.116 11.0894 14.7889Z" fill="#5EC737" fill-opacity="0.5"/>
<path d="M3.25037 47.8662C2.00758 48.87 0 52.2155 0 53.3149C0 57.33 7.64793 55.6097 10.0857 51.021C11.2807 48.7744 5.44915 46.0976 3.25037 47.8662Z" fill="#5EC737" fill-opacity="0.5"/>
<path d="M38.0957 51.4027C35.5623 51.7851 33.9849 57.0436 35.9447 58.4297C37.7133 59.6725 38.9088 59.3375 41.2509 56.8041C45.0271 52.8367 42.302 50.7813 38.0957 51.4027Z" fill="#5EC737" fill-opacity="0.5"/>
<path d="M48.3252 68.7541C44.2622 74.4422 44.4534 78.314 48.7554 78.314C50.1894 78.314 55.9731 71.7659 55.9731 70.1407C55.9253 67.225 50.1416 66.1729 48.3252 68.7541Z" fill="#5EC737" fill-opacity="0.5"/>
<path d="M59.7494 43.5641C57.3594 44.7591 55.543 51.4984 57.3594 52.4544C59.7972 53.7449 62.8563 51.9286 65.5331 47.5788C67.1583 44.902 62.9519 41.9867 59.7494 43.5641Z" fill="#5EC737" fill-opacity="0.5"/>
<path d="M35.8496 1.02209C30.3526 6.90143 30.1136 11.4424 35.3238 11.4424C37.0924 11.4424 41.8723 7.09263 43.5453 3.98566C45.0271 1.11769 38.1918 -1.51129 35.8496 1.02209Z" fill="#5EC737" fill-opacity="0.5"/>
<path d="M54.4436 23.5835C52.0058 22.3408 49.807 22.6758 48.7076 24.4444C44.3101 31.5666 49.6158 34.3867 54.9216 27.6948C56.6424 25.5916 56.499 24.6351 54.4436 23.5835Z" fill="#5EC737" fill-opacity="0.5"/>
<path d="M74.9018 17.8952C74.3282 16.1744 70.3131 14.836 68.4967 15.7442C67.0627 16.4612 64.6249 23.0102 65.4375 23.9662C67.5407 26.5474 76.0012 21.0978 74.9018 17.8952Z" fill="#5EC737" fill-opacity="0.5"/>
</g>
</svg>
