<svg width="333" height="62" viewBox="0 0 333 62" fill="none" xmlns="http://www.w3.org/2000/svg">
<line x1="1.5" y1="-1.5" x2="29.5" y2="-1.5" transform="matrix(-6.59283e-08 -1 -1 1.37731e-07 0 46)" stroke="#2B3443" stroke-width="3" stroke-linecap="round"/>
<line x1="1.5" y1="-1.5" x2="29.5" y2="-1.5" transform="matrix(-9.52927e-08 -1 -1 9.52891e-08 5 46)" stroke="#2B3443" stroke-width="3" stroke-linecap="round"/>
<line x1="1.5" y1="-1.5" x2="29.5" y2="-1.5" transform="matrix(-1.05131e-07 -1 -1 8.63722e-08 11 46)" stroke="#2B3443" stroke-width="3" stroke-linecap="round"/>
<line x1="1.5" y1="-1.5" x2="50.5" y2="-1.5" transform="matrix(-4.86872e-08 -1 -1 3.92442e-08 16 57)" stroke="#2B3443" stroke-width="3" stroke-linecap="round"/>
<line x1="1.5" y1="-1.5" x2="50.5" y2="-1.5" transform="matrix(-5.11707e-08 -1 -1 3.73395e-08 22 57)" stroke="#2B3443" stroke-width="3" stroke-linecap="round"/>
<line x1="1.5" y1="-1.5" x2="50.5" y2="-1.5" transform="matrix(-4.99697e-08 -1 -1 3.8237e-08 27 57)" stroke="#2B3443" stroke-width="3" stroke-linecap="round"/>
<line x1="1.5" y1="-1.5" x2="60.5" y2="-1.5" transform="matrix(-5.37067e-08 -1 -1 3.55764e-08 33 62)" stroke="#2B3443" stroke-width="3" stroke-linecap="round"/>
<line x1="1.5" y1="-1.5" x2="60.5" y2="-1.5" transform="matrix(-5.37943e-08 -1 -1 3.55185e-08 38 62)" stroke="#2B3443" stroke-width="3" stroke-linecap="round"/>
<line x1="1.5" y1="-1.5" x2="60.5" y2="-1.5" transform="matrix(-5.47348e-08 -1 -1 3.49082e-08 44 62)" stroke="#2B3443" stroke-width="3" stroke-linecap="round"/>
<line x1="1.5" y1="-1.5" x2="50.5" y2="-1.5" transform="matrix(-5.42258e-08 -1 -1 3.52358e-08 49 57)" stroke="#2B3443" stroke-width="3" stroke-linecap="round"/>
<line x1="1.5" y1="-1.5" x2="50.5" y2="-1.5" transform="matrix(-5.47546e-08 -1 -1 3.48955e-08 55 57)" stroke="#2B3443" stroke-width="3" stroke-linecap="round"/>
<line x1="1.5" y1="-1.5" x2="50.5" y2="-1.5" transform="matrix(-5.40683e-08 -1 -1 3.53385e-08 60 57)" stroke="#2B3443" stroke-width="3" stroke-linecap="round"/>
<line x1="1.5" y1="-1.5" x2="53.5" y2="-1.5" transform="matrix(-5.50652e-08 -1 -1 3.46987e-08 66 58)" stroke="#2B3443" stroke-width="3" stroke-linecap="round"/>
<line x1="1.5" y1="-1.5" x2="53.5" y2="-1.5" transform="matrix(-5.47353e-08 -1 -1 3.49078e-08 71 58)" stroke="#2B3443" stroke-width="3" stroke-linecap="round"/>
<line x1="1.5" y1="-1.5" x2="53.5" y2="-1.5" transform="matrix(-5.49079e-08 -1 -1 3.47981e-08 77 58)" stroke="#2B3443" stroke-width="3" stroke-linecap="round"/>
<line x1="1.5" y1="-1.5" x2="53.5" y2="-1.5" transform="matrix(-5.43996e-08 -1 -1 3.51233e-08 82 58)" stroke="#2B3443" stroke-width="3" stroke-linecap="round"/>
<line x1="1.5" y1="-1.5" x2="53.5" y2="-1.5" transform="matrix(-5.54042e-08 -1 -1 3.44864e-08 88 58)" stroke="#2B3443" stroke-width="3" stroke-linecap="round"/>
<line x1="1.5" y1="-1.5" x2="53.5" y2="-1.5" transform="matrix(-5.48887e-08 -1 -1 3.48103e-08 93 58)" stroke="#2B3443" stroke-width="3" stroke-linecap="round"/>
<line x1="1.5" y1="-1.5" x2="50.5" y2="-1.5" transform="matrix(-5.54263e-08 -1 -1 3.44726e-08 99 57)" stroke="#2B3443" stroke-width="3" stroke-linecap="round"/>
<line x1="1.5" y1="-1.5" x2="50.5" y2="-1.5" transform="matrix(-5.5272e-08 -1 -1 3.45689e-08 104 57)" stroke="#2B3443" stroke-width="3" stroke-linecap="round"/>
<line x1="1.5" y1="-1.5" x2="50.5" y2="-1.5" transform="matrix(-5.49136e-08 -1 -1 3.47944e-08 109 57)" stroke="#2B3443" stroke-width="3" stroke-linecap="round"/>
<line x1="1.5" y1="-1.5" x2="30.5" y2="-1.5" transform="matrix(-5.54065e-08 -1 -1 3.44849e-08 115 47)" stroke="#2B3443" stroke-width="3" stroke-linecap="round"/>
<line x1="1.5" y1="-1.5" x2="30.5" y2="-1.5" transform="matrix(-5.52295e-08 -1 -1 3.45955e-08 120 47)" stroke="#2B3443" stroke-width="3" stroke-linecap="round"/>
<line x1="1.5" y1="-1.5" x2="30.5" y2="-1.5" transform="matrix(-5.52457e-08 -1 -1 3.45853e-08 126 47)" stroke="#2B3443" stroke-width="3" stroke-linecap="round"/>
<line x1="1.5" y1="-1.5" x2="60.5" y2="-1.5" transform="matrix(-5.48916e-08 -1 -1 3.48084e-08 131 62)" stroke="#2B3443" stroke-width="3" stroke-linecap="round"/>
<line x1="1.5" y1="-1.5" x2="60.5" y2="-1.5" transform="matrix(-5.55858e-08 -1 -1 3.43737e-08 137 62)" stroke="#2B3443" stroke-width="3" stroke-linecap="round"/>
<line x1="1.5" y1="-1.5" x2="60.5" y2="-1.5" transform="matrix(-5.5226e-08 -1 -1 3.45976e-08 142 62)" stroke="#2B3443" stroke-width="3" stroke-linecap="round"/>
<line x1="1.5" y1="-1.5" x2="60.5" y2="-1.5" transform="matrix(-5.52457e-08 -1 -1 3.45853e-08 148 62)" stroke="#2B3443" stroke-width="3" stroke-linecap="round"/>
<line x1="1.5" y1="-1.5" x2="60.5" y2="-1.5" transform="matrix(-5.52498e-08 -1 -1 3.45827e-08 153 62)" stroke="#2B3443" stroke-width="3" stroke-linecap="round"/>
<line x1="1.5" y1="-1.5" x2="60.5" y2="-1.5" transform="matrix(-5.54263e-08 -1 -1 3.44726e-08 159 62)" stroke="#2B3443" stroke-width="3" stroke-linecap="round"/>
<line x1="1.5" y1="-1.5" x2="60.5" y2="-1.5" transform="matrix(-5.55887e-08 -1 -1 3.43719e-08 164 62)" stroke="#2B3443" stroke-width="3" stroke-linecap="round"/>
<line x1="1.5" y1="-1.5" x2="60.5" y2="-1.5" transform="matrix(-5.57675e-08 -1 -1 3.42617e-08 170 62)" stroke="#2B3443" stroke-width="3" stroke-linecap="round"/>
<line x1="1.5" y1="-1.5" x2="60.5" y2="-1.5" transform="matrix(-5.54065e-08 -1 -1 3.44849e-08 175 62)" stroke="#2B3443" stroke-width="3" stroke-linecap="round"/>
<line x1="1.5" y1="-1.5" x2="22.5" y2="-1.5" transform="matrix(-5.56086e-08 -1 -1 3.43596e-08 181 43)" stroke="#2B3443" stroke-width="3" stroke-linecap="round"/>
<line x1="1.5" y1="-1.5" x2="22.5" y2="-1.5" transform="matrix(-5.54304e-08 -1 -1 3.44701e-08 186 43)" stroke="#2B3443" stroke-width="3" stroke-linecap="round"/>
<line x1="1.5" y1="-1.5" x2="22.5" y2="-1.5" transform="matrix(-5.55846e-08 -1 -1 3.43744e-08 192 43)" stroke="#2B3443" stroke-width="3" stroke-linecap="round"/>
<line x1="1.5" y1="-1.5" x2="36.5" y2="-1.5" transform="matrix(-5.55858e-08 -1 -1 3.43737e-08 197 50)" stroke="#2B3443" stroke-width="3" stroke-linecap="round"/>
<line x1="1.5" y1="-1.5" x2="36.5" y2="-1.5" transform="matrix(-5.54275e-08 -1 -1 3.44719e-08 203 50)" stroke="#2B3443" stroke-width="3" stroke-linecap="round"/>
<line x1="1.5" y1="-1.5" x2="36.5" y2="-1.5" transform="matrix(-5.52457e-08 -1 -1 3.45853e-08 208 50)" stroke="#2B3443" stroke-width="3" stroke-linecap="round"/>
<line x1="1.5" y1="-1.5" x2="36.5" y2="-1.5" transform="matrix(-5.54077e-08 -1 -1 3.44842e-08 213 50)" stroke="#2B3443" stroke-width="3" stroke-linecap="round"/>
<line x1="1.5" y1="-1.5" x2="36.5" y2="-1.5" transform="matrix(-5.57675e-08 -1 -1 3.42617e-08 219 50)" stroke="#2B3443" stroke-width="3" stroke-linecap="round"/>
<line x1="1.5" y1="-1.5" x2="36.5" y2="-1.5" transform="matrix(-5.54065e-08 -1 -1 3.44849e-08 224 50)" stroke="#2B3443" stroke-width="3" stroke-linecap="round"/>
<line x1="1.5" y1="-1.5" x2="36.5" y2="-1.5" transform="matrix(-5.57675e-08 -1 -1 3.42617e-08 230 50)" stroke="#2B3443" stroke-width="3" stroke-linecap="round"/>
<line x1="1.5" y1="-1.5" x2="36.5" y2="-1.5" transform="matrix(-5.54304e-08 -1 -1 3.44701e-08 235 50)" stroke="#2B3443" stroke-width="3" stroke-linecap="round"/>
<line x1="1.5" y1="-1.5" x2="36.5" y2="-1.5" transform="matrix(-5.55846e-08 -1 -1 3.43744e-08 241 50)" stroke="#2B3443" stroke-width="3" stroke-linecap="round"/>
<line x1="1.5" y1="-1.5" x2="36.5" y2="-1.5" transform="matrix(-5.55887e-08 -1 -1 3.43719e-08 246 50)" stroke="#2B3443" stroke-width="3" stroke-linecap="round"/>
<line x1="1.5" y1="-1.5" x2="36.5" y2="-1.5" transform="matrix(-5.57675e-08 -1 -1 3.42617e-08 252 50)" stroke="#2B3443" stroke-width="3" stroke-linecap="round"/>
<line x1="1.5" y1="-1.5" x2="36.5" y2="-1.5" transform="matrix(-5.55846e-08 -1 -1 3.43744e-08 257 50)" stroke="#2B3443" stroke-width="3" stroke-linecap="round"/>
<line x1="1.5" y1="-1.5" x2="36.5" y2="-1.5" transform="matrix(-5.57675e-08 -1 -1 3.42617e-08 263 50)" stroke="#2B3443" stroke-width="3" stroke-linecap="round"/>
<line x1="1.5" y1="-1.5" x2="36.5" y2="-1.5" transform="matrix(-5.57675e-08 -1 -1 3.42617e-08 268 50)" stroke="#2B3443" stroke-width="3" stroke-linecap="round"/>
<line x1="1.5" y1="-1.5" x2="36.5" y2="-1.5" transform="matrix(-5.55858e-08 -1 -1 3.43737e-08 274 50)" stroke="#2B3443" stroke-width="3" stroke-linecap="round"/>
<line x1="1.5" y1="-1.5" x2="53.5" y2="-1.5" transform="matrix(-5.55858e-08 -1 -1 3.43737e-08 279 58)" stroke="#2B3443" stroke-width="3" stroke-linecap="round"/>
<line x1="1.5" y1="-1.5" x2="53.5" y2="-1.5" transform="matrix(-5.56086e-08 -1 -1 3.43596e-08 285 58)" stroke="#2B3443" stroke-width="3" stroke-linecap="round"/>
<line x1="1.5" y1="-1.5" x2="53.5" y2="-1.5" transform="matrix(-5.57675e-08 -1 -1 3.42617e-08 290 58)" stroke="#2B3443" stroke-width="3" stroke-linecap="round"/>
<line x1="1.5" y1="-1.5" x2="29.5" y2="-1.5" transform="matrix(-5.57675e-08 -1 -1 3.42617e-08 296 46)" stroke="#2B3443" stroke-width="3" stroke-linecap="round"/>
<line x1="1.5" y1="-1.5" x2="29.5" y2="-1.5" transform="matrix(-5.57675e-08 -1 -1 3.42617e-08 301 46)" stroke="#2B3443" stroke-width="3" stroke-linecap="round"/>
<line x1="1.5" y1="-1.5" x2="34.5" y2="-1.5" transform="matrix(-5.57675e-08 -1 -1 3.42617e-08 307 49)" stroke="#2B3443" stroke-width="3" stroke-linecap="round"/>
<line x1="1.5" y1="-1.5" x2="34.5" y2="-1.5" transform="matrix(-5.57675e-08 -1 -1 3.42617e-08 312 49)" stroke="#2B3443" stroke-width="3" stroke-linecap="round"/>
</svg>
