<svg width="22" height="21" viewBox="0 0 22 21" fill="none" xmlns="http://www.w3.org/2000/svg">
<path d="M10.0739 10.4748V11.9784H8.57033C8.26961 11.9784 8.06914 12.1789 8.06914 12.4796C8.06914 12.7803 8.26961 12.9808 8.57033 12.9808H10.0739V14.4844C10.0739 14.7851 10.2744 14.9855 10.5751 14.9855C10.8758 14.9855 11.0763 14.7851 11.0763 14.4844V12.9808H12.5798C12.8805 12.9808 13.081 12.7803 13.081 12.4796C13.081 12.1789 12.8805 11.9784 12.5798 11.9784H11.0763V10.4748C11.0763 10.1741 10.8758 9.97365 10.5751 9.97365C10.2744 9.97365 10.0739 10.1741 10.0739 10.4748ZM20.3984 9.07151L10.8758 0.651545C10.6753 0.45107 10.3746 0.45107 10.1741 0.651545L0.651545 9.07151C0.45107 9.27199 0.45107 9.5727 0.651545 9.77318C0.852021 9.97365 1.15273 9.97365 1.35321 9.77318L2.55606 8.7708V19.9974C2.55606 20.2981 2.75654 20.4986 3.05725 20.4986H18.0929C18.3936 20.4986 18.5941 20.2981 18.5941 19.9974V8.7708L19.797 9.77318C19.8972 9.87342 19.9974 9.87342 20.0977 9.87342C20.1979 9.87342 20.3984 9.77318 20.4986 9.67294C20.6991 9.5727 20.5989 9.17175 20.3984 9.07151ZM17.5917 19.4962H3.55844V7.86866L10.5751 1.65392L17.5917 7.86866V19.4962Z" fill="#5EC737"/>
<path d="M10.0739 10.4748V11.9784H8.57033C8.26961 11.9784 8.06914 12.1789 8.06914 12.4796C8.06914 12.7803 8.26961 12.9808 8.57033 12.9808H10.0739V14.4844C10.0739 14.7851 10.2744 14.9855 10.5751 14.9855C10.8758 14.9855 11.0763 14.7851 11.0763 14.4844V12.9808H12.5798C12.8805 12.9808 13.081 12.7803 13.081 12.4796C13.081 12.1789 12.8805 11.9784 12.5798 11.9784H11.0763V10.4748C11.0763 10.1741 10.8758 9.97365 10.5751 9.97365C10.2744 9.97365 10.0739 10.1741 10.0739 10.4748ZM20.3984 9.07151L10.8758 0.651545C10.6753 0.45107 10.3746 0.45107 10.1741 0.651545L0.651545 9.07151C0.45107 9.27199 0.45107 9.5727 0.651545 9.77318C0.852021 9.97365 1.15273 9.97365 1.35321 9.77318L2.55606 8.7708V19.9974C2.55606 20.2981 2.75654 20.4986 3.05725 20.4986H18.0929C18.3936 20.4986 18.5941 20.2981 18.5941 19.9974V8.7708L19.797 9.77318C19.8972 9.87342 19.9974 9.87342 20.0977 9.87342C20.1979 9.87342 20.3984 9.77318 20.4986 9.67294C20.6991 9.5727 20.5989 9.17175 20.3984 9.07151ZM17.5917 19.4962H3.55844V7.86866L10.5751 1.65392L17.5917 7.86866V19.4962Z" fill="black" fill-opacity="0.2"/>
<path d="M10.0739 10.4748V11.9784H8.57033C8.26961 11.9784 8.06914 12.1789 8.06914 12.4796C8.06914 12.7803 8.26961 12.9808 8.57033 12.9808H10.0739V14.4844C10.0739 14.7851 10.2744 14.9855 10.5751 14.9855C10.8758 14.9855 11.0763 14.7851 11.0763 14.4844V12.9808H12.5798C12.8805 12.9808 13.081 12.7803 13.081 12.4796C13.081 12.1789 12.8805 11.9784 12.5798 11.9784H11.0763V10.4748C11.0763 10.1741 10.8758 9.97365 10.5751 9.97365C10.2744 9.97365 10.0739 10.1741 10.0739 10.4748ZM20.3984 9.07151L10.8758 0.651545C10.6753 0.45107 10.3746 0.45107 10.1741 0.651545L0.651545 9.07151C0.45107 9.27199 0.45107 9.5727 0.651545 9.77318C0.852021 9.97365 1.15273 9.97365 1.35321 9.77318L2.55606 8.7708V19.9974C2.55606 20.2981 2.75654 20.4986 3.05725 20.4986H18.0929C18.3936 20.4986 18.5941 20.2981 18.5941 19.9974V8.7708L19.797 9.77318C19.8972 9.87342 19.9974 9.87342 20.0977 9.87342C20.1979 9.87342 20.3984 9.77318 20.4986 9.67294C20.6991 9.5727 20.5989 9.17175 20.3984 9.07151ZM17.5917 19.4962H3.55844V7.86866L10.5751 1.65392L17.5917 7.86866V19.4962Z" stroke="#5EC737"/>
<path d="M10.0739 10.4748V11.9784H8.57033C8.26961 11.9784 8.06914 12.1789 8.06914 12.4796C8.06914 12.7803 8.26961 12.9808 8.57033 12.9808H10.0739V14.4844C10.0739 14.7851 10.2744 14.9855 10.5751 14.9855C10.8758 14.9855 11.0763 14.7851 11.0763 14.4844V12.9808H12.5798C12.8805 12.9808 13.081 12.7803 13.081 12.4796C13.081 12.1789 12.8805 11.9784 12.5798 11.9784H11.0763V10.4748C11.0763 10.1741 10.8758 9.97365 10.5751 9.97365C10.2744 9.97365 10.0739 10.1741 10.0739 10.4748ZM20.3984 9.07151L10.8758 0.651545C10.6753 0.45107 10.3746 0.45107 10.1741 0.651545L0.651545 9.07151C0.45107 9.27199 0.45107 9.5727 0.651545 9.77318C0.852021 9.97365 1.15273 9.97365 1.35321 9.77318L2.55606 8.7708V19.9974C2.55606 20.2981 2.75654 20.4986 3.05725 20.4986H18.0929C18.3936 20.4986 18.5941 20.2981 18.5941 19.9974V8.7708L19.797 9.77318C19.8972 9.87342 19.9974 9.87342 20.0977 9.87342C20.1979 9.87342 20.3984 9.77318 20.4986 9.67294C20.6991 9.5727 20.5989 9.17175 20.3984 9.07151ZM17.5917 19.4962H3.55844V7.86866L10.5751 1.65392L17.5917 7.86866V19.4962Z" stroke="black" stroke-opacity="0.2"/>
</svg>
