<svg width="337" height="110" viewBox="0 0 337 110" fill="none" xmlns="http://www.w3.org/2000/svg">
<path fill-rule="evenodd" clip-rule="evenodd" d="M281.067 0.390597C279.865 0.732369 279.064 4.76528 279.064 10.1653C279.064 25.8868 272.454 27.5957 258.434 15.3602C242.211 1.34755 234.8 1.41592 226.789 15.6336C225.787 17.5476 211.968 26.2969 206.159 28.6893L202.354 30.3298C191.538 26.8438 184.328 24.9982 178.72 16.1121C171.309 4.56022 157.89 4.42351 140.465 15.7703C127.046 24.5881 113.026 30.4666 108.419 29.1678C103.212 27.664 95.4004 22.4691 90.5935 17.2058C80.5792 6.06402 68.9625 4.97035 50.7364 13.4463C40.1212 18.4362 38.9194 18.5045 41.5232 13.9931C45.3286 7.15768 16.6876 6.13237 9.87779 12.8995C-0.937718 23.6995 19.091 39.6951 5.87205 56.9204C-0.937719 65.8748 -1.93915 72.6412 3.46861 75.1703C7.27406 76.8792 7.47435 77.3577 5.27119 78.3147C-0.537135 80.7071 3.4686 105.588 10.0781 108.391C15.6861 110.783 21.2942 109.417 25.9008 104.427C29.9065 100.189 30.9079 99.6412 34.5131 100.051C62.7536 103.264 66.7594 99.7096 82.1815 80.2286L84.7852 84.3982C90.5935 93.9678 115.029 102.444 136.86 102.444C150.479 102.444 155.887 100.12 164.9 90.5501C168.906 86.3805 172.511 82.826 172.711 82.6893C172.912 82.5526 176.517 84.74 180.322 87.4742C201.953 103.401 250.823 107.092 272.254 94.4463L278.263 90.8235L286.675 94.1045C316.918 105.998 341.353 103.743 336.346 89.5931C335.144 86.3121 334.143 81.2539 334.143 78.3147C334.143 73.1881 309.708 32.7223 323.728 32.7223C338.349 32.7223 326.131 16.5222 326.131 9.27667C326.131 4.49186 317.319 0.937435 311.11 3.32984C308.105 4.49187 308.105 5.10705 311.911 12.8995C317.92 24.7931 317.319 25.4083 305.502 20.0767C299.493 17.4109 298.492 16.4539 297.49 11.6007C295.487 3.39819 288.477 -1.45497 281.067 0.390597ZM78.1757 31.971L69.964 38.8741C41.9238 62.4564 43.3258 55.4159 39.7206 29.6463C52.1384 25.1349 52.539 24.5888 58.5476 21.0343C60.3502 22.2647 63.755 27.9381 78.1757 31.971ZM302.097 38.6691C302.297 47.2134 300.495 48.1704 292.483 43.864C278.864 36.5501 276.66 32.6539 285.874 31.4919C293.685 30.5349 297.891 27.8691 299.093 27.3906C299.493 28.7577 301.897 29.9197 302.097 38.6691ZM177.919 34.4311C191.538 36.0033 160.894 56.6463 145.072 56.6463C140.465 56.6463 123.24 49.4007 116.03 44.5476C104.213 36.5501 104.213 36.14 111.824 36.14C123.441 36.14 134.256 34.4995 144.471 31.2185C150.079 29.4412 154.886 27.9374 155.086 27.9374C156.488 27.9374 171.71 33.6792 177.919 34.4311ZM260.637 31.2185C267.848 32.3121 267.247 34.1577 256.231 44.0691C244.214 54.8007 244.614 54.664 231.395 49.9476C222.383 46.7349 207.762 38.8058 207.762 37.1653C207.762 36.2083 229.793 36.2083 240.008 30.3298L244.214 27.9374C249.221 29.0311 253.227 30.0564 260.637 31.2185ZM90.9941 48.2387C99.0056 53.9805 105.215 55.3476 119.435 59.5855C89.3918 80.0235 89.5921 78.9982 55.9439 57.1931C57.7465 56.1678 64.7565 53.0926 73.9697 45.6419C79.9783 40.7204 80.7795 40.2412 82.3818 41.6767C83.3832 42.5653 87.1887 45.5045 90.9941 48.2387ZM193.942 48.3071C193.942 49.8792 214.772 56.5786 223.785 57.9457C229.393 58.766 233.999 59.7223 233.999 60.064C233.999 63.4134 207.561 76.6058 196.545 78.7248C190.937 79.8185 167.704 72.9146 151.481 65.259C144.471 61.9779 144.471 61.4311 150.88 61.4311C164.299 61.4311 174.514 58.4919 184.929 51.6564C190.337 48.1703 193.942 46.8033 193.942 48.3071ZM295.888 54.5957C299.093 54.5957 297.49 59.9273 292.283 67.583C287.676 74.4185 283.47 74.4184 262.24 67.3096C246.217 61.9779 244.614 60.2691 254.829 59.1754C263.241 58.2184 271.052 55.5533 275.258 52.1356L278.864 49.1957L286.074 51.9298C290.08 53.3653 294.486 54.5957 295.888 54.5957ZM39.1197 57.6716C44.5275 58.5602 44.7278 59.1071 39.5203 59.7223C37.3171 59.9273 33.1111 61.3627 30.3071 62.8665C22.0953 67.1045 23.0967 65.8741 26.1011 52.6134L30.3071 54.8007C32.7105 55.9628 36.7163 57.2615 39.1197 57.6716ZM48.7335 69.8387C50.5361 71.6843 55.7436 74.4185 59.9496 75.9223C69.5634 79.34 69.5634 78.7255 58.9482 86.3128C47.9324 94.1052 44.5275 95.6767 41.7235 94.2412C33.712 90.2767 27.1025 75.2387 27.1025 75.1703C36.1154 68.8134 42.3243 63.8919 43.9266 65.3273C44.7278 65.9425 46.7306 67.9931 48.7335 69.8387ZM158.491 80.5027C138.462 97.3862 134.657 100.325 112.625 85.8336L104.413 80.4336C113.426 77.3577 118.834 75.9906 122.639 71.3425L126.044 67.3096L130.651 69.9077C136.66 73.1204 150.88 77.8369 158.491 80.5027ZM261.238 78.1103L268.048 79.6817C258.434 86.1071 258.034 86.7906 236.002 97.0438C235.802 96.9754 204.156 87.4058 204.156 85.0817C204.156 84.8767 208.162 84.1255 213.37 83.2369C235.201 79.5457 238.606 71.7526 240.408 70.659C241.81 71.2741 252.225 75.9229 261.238 78.1103ZM314.114 78.2463C318.12 80.4336 318.52 81.3223 317.519 86.4488C316.117 93.6944 315.516 93.8995 305.702 90.14C298.291 87.2691 288.878 82.0742 290.48 81.5957C292.683 80.7071 305.301 80.2969 307.304 77.4944C308.706 75.2387 308.907 75.3071 314.114 78.2463Z" fill="white" fill-opacity="0.2"/>
</svg>
