<svg width="24" height="24" viewBox="0 0 24 24" fill="none" xmlns="http://www.w3.org/2000/svg">
<path d="M11.9999 16.0002C14.5999 16.0002 16.6666 13.9335 16.6666 11.3335V6.00016C16.6666 3.40016 14.5999 1.3335 11.9999 1.3335C9.39992 1.3335 7.33325 3.40016 7.33325 6.00016V11.3335C7.33325 13.9335 9.39992 16.0002 11.9999 16.0002Z" fill="#F8F8F8"/>
<path d="M20 11.3335H18.6667C18.6667 15.0002 15.6667 18.0002 12 18.0002C8.33333 18.0002 5.33333 15.0002 5.33333 11.3335H4C4 15.5335 7.2 18.9335 11.3333 19.2668V21.3335H9.33333C8.93333 21.3335 8.66667 21.6002 8.66667 22.0002C8.66667 22.4002 8.93333 22.6668 9.33333 22.6668H14.6667C15.0667 22.6668 15.3333 22.4002 15.3333 22.0002C15.3333 21.6002 15.0667 21.3335 14.6667 21.3335H12.6667V19.2668C16.8 18.9335 20 15.5335 20 11.3335Z" fill="#F8F8F8"/>
</svg>
